<?xml version="1.0" standalone="no"?>
<!DOCTYPE svg PUBLIC "-//W3C//DTD SVG 1.1//EN" "http://www.w3.org/Graphics/SVG/1.1/DTD/svg11.dtd" >
<svg xmlns="http://www.w3.org/2000/svg" xmlns:xlink="http://www.w3.org/1999/xlink" version="1.1">
<metadata></metadata>
<defs>
<font id="krub_lightitalic" horiz-adv-x="1146" >
<font-face units-per-em="2048" ascent="1638" descent="-410" />
<missing-glyph horiz-adv-x="528" />
<glyph unicode="&#xfb01;" horiz-adv-x="1277" d="M53 1036l13 90h210l21 152q20 150 113.5 237t228.5 87q88 0 133 -21.5t41 -62.5q0 -18 -10 -31.5t-23 -13.5q-47 33 -145 32q-94 0 -151.5 -58t-73.5 -171l-21 -150h281l-13 -90h-280l-146 -1036h-112l145 1036h-211zM809 0l158 1126h112l-157 -1126h-113zM981 1409 q0 12 2 18l2 17q4 37 27.5 56.5t60.5 19.5h14q76 0 66 -76l-2 -17q-6 -37 -28.5 -57t-59.5 -20h-15q-32 0 -49.5 15t-17.5 44z" />
<glyph unicode="&#xfb02;" horiz-adv-x="1236" d="M53 1036l13 90h210l21 152q20 150 113.5 237t228.5 87q88 0 133 -21.5t41 -62.5q0 -18 -10 -31.5t-23 -13.5q-47 33 -145 32q-94 0 -151.5 -58t-73.5 -171l-21 -150h281l-13 -90h-280l-146 -1036h-112l145 1036h-211zM788 0l228 1620h112l-227 -1620h-113z" />
<glyph horiz-adv-x="0" />
<glyph unicode="&#xd;" horiz-adv-x="528" />
<glyph horiz-adv-x="0" />
<glyph horiz-adv-x="0" />
<glyph unicode=" "  horiz-adv-x="528" />
<glyph unicode="&#x09;" horiz-adv-x="528" />
<glyph unicode="&#xa0;" horiz-adv-x="528" />
<glyph unicode="!" horiz-adv-x="503" d="M61 78l2 16q12 78 89 78h14q68 0 67 -59q0 -12 -2 -19l-2 -16q-10 -78 -86 -78h-14q-78 0 -68 78zM150 422l120 1012h133l-163 -1012h-90z" />
<glyph unicode="&#x22;" horiz-adv-x="663" d="M176 1034l45 475h125l-86 -475h-84zM461 1034l45 475h125l-86 -475h-84z" />
<glyph unicode="#" horiz-adv-x="1105" d="M-4 440l12 82h240l114 385h-247l12 82h260l133 445h88l-133 -445h307l133 445h89l-134 -445h207l-12 -82h-219l-115 -385h227l-12 -82h-239l-134 -440h-88l133 440h-307l-133 -440h-88l133 440h-227zM336 522h307l115 385h-307z" />
<glyph unicode="$" horiz-adv-x="1247" d="M4 283q0 45 25.5 70.5t70.5 27.5q8 -127 105.5 -207t259.5 -90l90 629q-211 55 -307 143t-96 227q0 170 137 270.5t368 100.5l29 203h107l-29 -209q158 -23 258 -109t121 -215q-27 -27 -66 -26q-23 0 -38 12t-25 43q-61 164 -264 195l-78 -551q157 -45 244.5 -95.5 t125 -116t37.5 -163.5q0 -199 -137 -315.5t-385 -126.5l-31 -226h-106l33 228q-129 8 -231.5 49t-160 107.5t-57.5 144.5zM272 1085q0 -96 65.5 -154.5t231.5 -105.5l74 531q-178 -2 -274.5 -73t-96.5 -198zM573 84q181 12 282 97t101 225q0 76 -27.5 126t-91 85.5 t-180.5 68.5z" />
<glyph unicode="%" horiz-adv-x="1761" d="M215 1034q0 174 94 287t252 113q127 0 200 -77t73 -208q0 -178 -88.5 -293t-260.5 -115q-120 0 -195 78t-75 215zM303 -20l1014 1474h106l-1013 -1474h-107zM313 1038q0 -100 48.5 -154.5t130.5 -54.5q118 0 180.5 87.5t62.5 228.5q0 201 -180 201q-117 0 -179.5 -86 t-62.5 -222zM895 293q0 174 94 286.5t252 112.5q127 0 199.5 -76.5t72.5 -207.5q0 -178 -88 -293t-260 -115q-121 0 -195.5 78t-74.5 215zM993 297q0 -100 48.5 -154.5t129.5 -54.5q119 0 181.5 87t62.5 228q0 201 -180 201q-117 0 -179.5 -86t-62.5 -221z" />
<glyph unicode="&#x26;" horiz-adv-x="1406" d="M10 322q0 119 44 200.5t123 141t210 129.5q-88 170 -88 307q0 162 101.5 258t258.5 96q125 0 203 -67.5t78 -178.5q0 -98 -53 -175t-139 -137t-224 -134q61 -111 164 -268.5t172 -245.5q88 88 144.5 207.5t70.5 257.5q35 0 58.5 -19.5t23.5 -56.5q0 -113 -61.5 -239 t-171.5 -226q59 -63 107 -80.5t122 -19.5l-4 -39q-4 -31 -25.5 -42t-66.5 -11q-55 0 -105.5 28.5t-109.5 97.5q-188 -127 -416 -126q-186 0 -301 90t-115 252zM119 328q0 -121 87 -188.5t220 -67.5q199 0 354 110q-88 119 -188 270.5t-162 260.5q-109 -59 -172 -107.5 t-101 -116t-38 -161.5zM408 1100q0 -106 73 -258q176 88 262 168t86 196q0 72 -45 114t-131 42q-106 0 -175.5 -71.5t-69.5 -190.5z" />
<glyph unicode="'" horiz-adv-x="456" d="M217 1034l49 475h115l-82 -475h-82z" />
<glyph unicode="(" horiz-adv-x="798" d="M141 573q0 659 482 1176h120q-238 -260 -361.5 -557t-123.5 -612q0 -211 49 -401.5t162 -375.5h-121q-207 346 -207 770z" />
<glyph unicode=")" horiz-adv-x="798" d="M55 -197q240 260 364 557t124 613q0 211 -50.5 400.5t-162.5 375.5h121q206 -346 206 -770q0 -659 -481 -1176h-121z" />
<glyph unicode="*" horiz-adv-x="1265" d="M309 1520l58 112l331 -133l23 369h121l-78 -369l371 133l24 -112l-393 -84l205 -293l-107 -66l-147 322l-238 -322l-90 66l287 293z" />
<glyph unicode="+" horiz-adv-x="1228" d="M72 618l12 93h463l65 452h101l-66 -452h461l-12 -93h-461l-64 -454h-100l64 454h-463z" />
<glyph unicode="," horiz-adv-x="630" d="M39 -236q61 59 99 113.5t57 122.5h-7q-29 0 -46 17.5t-17 45.5l4 50q12 59 80 59h20q31 0 49.5 -17.5t18.5 -50.5q0 -29 -6 -53q-18 -117 -109 -231q-35 -45 -56.5 -61.5t-41.5 -16.5q-23 0 -45 22z" />
<glyph unicode="-" horiz-adv-x="983" d="M86 567l12 97h738l-13 -97h-737z" />
<glyph unicode="." horiz-adv-x="630" d="M125 78l2 16q12 78 88 78h14q68 0 68 -59q0 -12 -2 -19l-2 -16q-10 -78 -86 -78h-14q-78 0 -68 78z" />
<glyph unicode="/" horiz-adv-x="684" d="M-154 -113l869 1774h106l-868 -1774h-107z" />
<glyph unicode="0" horiz-adv-x="1269" d="M68 500q0 98 14 192q51 365 215 563.5t424 198.5q219 0 330.5 -141.5t111.5 -405.5q0 -90 -16 -215q-49 -342 -211 -529.5t-422 -187.5q-221 0 -333.5 135.5t-112.5 389.5zM180 508q0 -211 87 -320.5t261 -109.5q209 0 338 157.5t170 456.5q16 121 17 209q0 221 -87 336 t-257 115q-211 0 -340 -168t-176 -492q-12 -98 -13 -184z" />
<glyph unicode="1" horiz-adv-x="940" d="M43 0l12 92h269l165 1186q-59 -51 -137 -89t-135 -38q-33 0 -50 15.5t-17 43.5q0 16 2 25q100 8 205.5 58t195.5 141h63l-188 -1342h250l-12 -92h-623z" />
<glyph unicode="2" horiz-adv-x="1099" d="M-10 0l6 53l72 53q283 207 444.5 343.5t272 293t110.5 322.5q0 129 -72.5 199.5t-201.5 70.5q-160 0 -254.5 -82t-126.5 -254q-80 0 -80 68q0 104 62.5 187t169 131.5t235.5 48.5q170 0 275.5 -97.5t105.5 -267.5q0 -176 -111 -341t-265.5 -298t-418.5 -330h649l-14 -100 h-858z" />
<glyph unicode="3" horiz-adv-x="1124" d="M-18 162q0 51 43 67q61 -72 151 -111.5t234 -39.5q117 0 211 42t148 119.5t54 184.5q0 121 -78.5 188.5t-207.5 67.5l-68 -2q-45 -4 -72 -4q-20 0 -37.5 28.5t-17.5 51.5q0 16 16 16h185q156 0 254 89t98 228q0 121 -81 185.5t-230 64.5q-127 0 -223.5 -59t-153.5 -178 q-27 0 -43.5 14t-16.5 41q0 57 59.5 122.5t162 111t223.5 45.5q180 0 294.5 -91.5t114.5 -255.5q0 -137 -76.5 -231t-205.5 -129q94 -31 153.5 -102.5t59.5 -190.5q0 -145 -69.5 -247.5t-188.5 -153.5t-268 -51q-131 0 -227.5 27.5t-146.5 69.5t-50 83z" />
<glyph unicode="4" horiz-adv-x="1069" d="M-18 354l6 54q244 283 384 526.5t183 499.5q25 4 33 4q59 0 59 -68q0 -115 -81 -286t-197.5 -341t-223.5 -290h480l65 473h107l-66 -473h232l-15 -99h-231l-49 -354h-107l49 354h-628z" />
<glyph unicode="5" horiz-adv-x="1138" d="M70 217q0 78 75 90q25 -104 110 -165.5t224 -61.5q127 0 221.5 61.5t143.5 167t49 236.5q0 139 -78 211.5t-225 72.5q-98 0 -190.5 -46t-166.5 -128l-77 15l155 764h707l-12 -99h-611l-104 -514q131 106 319 107q181 0 289.5 -103.5t108.5 -275.5q0 -158 -70 -287 t-195 -204.5t-280 -75.5q-115 0 -205 34.5t-139 90t-49 110.5z" />
<glyph unicode="6" horiz-adv-x="1181" d="M57 477q0 231 116 456.5t307.5 368t406.5 142.5q92 0 86 -94q-168 0 -318.5 -75t-262 -202t-171.5 -282q72 57 171.5 93t209.5 36q182 0 290.5 -113t108.5 -301q0 -152 -64.5 -270.5t-180 -184t-269.5 -65.5q-209 0 -319.5 137t-110.5 354zM164 483q0 -176 84 -286.5 t248 -110.5q184 0 291.5 113.5t107.5 304.5q0 154 -83 235.5t-224 81.5q-117 0 -222.5 -48t-185.5 -132q-16 -82 -16 -158z" />
<glyph unicode="7" horiz-adv-x="987" d="M180 1389q0 18 10 45h828l-8 -58q-285 -377 -426.5 -660.5t-196.5 -568.5l-29 -147h-49q-61 0 -61 61q0 18 2 29l12 72q45 262 212 574.5t405 600.5l-631 -2q-74 0 -68 54z" />
<glyph unicode="8" horiz-adv-x="1155" d="M35 332q0 164 95 261t278 150q-115 51 -172.5 132t-57.5 180q0 123 63.5 211t174 133t248.5 45q115 0 200.5 -44t130.5 -120t45 -172q0 -147 -78.5 -232t-232.5 -139q135 -53 197.5 -143t62.5 -201q0 -207 -146.5 -309t-385.5 -102q-127 0 -223.5 45t-147.5 124.5 t-51 180.5zM150 332q0 -113 90 -182.5t233 -69.5q174 0 287.5 79t113.5 232q0 104 -74.5 178t-238.5 123q-201 -51 -306 -132t-105 -228zM293 1057q0 -99 74.5 -168.5t210.5 -106.5q176 43 265 116t89 210q0 109 -76 174.5t-205 65.5q-162 0 -260 -76t-98 -215z" />
<glyph unicode="9" horiz-adv-x="1181" d="M117 903q0 152 68.5 272.5t189.5 189.5t270 69q209 0 313.5 -129t104.5 -338q0 -248 -112.5 -477.5t-300 -369.5t-396.5 -140q-43 0 -63.5 18t-20.5 49q0 8 4 29q164 0 307.5 71.5t249 197.5t162.5 284q-68 -53 -166 -90t-207 -37q-188 0 -295.5 107.5t-107.5 293.5z M223 905q0 -154 84 -228.5t228 -74.5q116 0 219.5 46t181.5 128q18 96 18 193q0 166 -79.5 265t-245.5 99q-121 0 -213 -55t-142.5 -152.5t-50.5 -220.5z" />
<glyph unicode=":" horiz-adv-x="663" d="M125 78l2 16q12 78 88 78h14q68 0 68 -59q0 -12 -2 -19l-2 -16q-10 -78 -86 -78h-14q-78 0 -68 78zM229 819l2 16q12 78 88 78h14q68 0 68 -59q0 -12 -2 -19l-2 -16q-10 -78 -86 -78h-14q-78 0 -68 78z" />
<glyph unicode=";" horiz-adv-x="663" d="M39 -236q61 59 99 113.5t57 122.5h-7q-29 0 -46 17.5t-17 45.5l4 50q12 59 80 59h20q31 0 49.5 -17.5t18.5 -50.5q0 -29 -6 -53q-18 -117 -109 -231q-35 -45 -56.5 -61.5t-41.5 -16.5q-23 0 -45 22zM229 819l2 16q12 78 88 78h14q68 0 68 -59q0 -12 -2 -19l-2 -16 q-10 -78 -86 -78h-14q-78 0 -68 78z" />
<glyph unicode="&#x3c;" horiz-adv-x="1228" d="M127 668l944 557l19 -123l-824 -479l959 -484l16 -123l-1102 562z" />
<glyph unicode="=" horiz-adv-x="1228" d="M86 424l12 96h942l-12 -96h-942zM145 842l13 96h942l-13 -96h-942z" />
<glyph unicode="&#x3e;" horiz-adv-x="1228" d="M-12 16l16 123l959 484l-824 479l19 123l946 -557l-12 -90z" />
<glyph unicode="?" horiz-adv-x="972" d="M111 1143q57 141 174.5 225t285.5 84q166 0 268.5 -85t102.5 -239q0 -115 -58.5 -195.5t-174.5 -168.5q-14 -10 -91 -66.5t-119 -117t-53 -129.5l-8 -64h-106l12 82q14 104 78.5 177t183.5 161l35 27q98 74 144 137t46 157q0 104 -70.5 164t-197.5 60q-135 0 -221 -69 t-137 -189zM260 68q0 20 4 32q6 37 26.5 54.5t59.5 17.5h15q72 0 67 -66q0 -18 -4 -30q-8 -76 -86 -76h-14q-74 0 -68 68z" />
<glyph unicode="@" horiz-adv-x="1708" d="M121 573q0 250 111.5 455t307 322.5t433.5 117.5q186 0 325.5 -66.5t214 -187t74.5 -282.5q0 -156 -61.5 -304.5t-170 -241.5t-243.5 -93q-57 0 -93 31.5t-36 87.5v4q-39 -55 -104.5 -89t-149.5 -34q-121 0 -186.5 69.5t-65.5 194.5q0 139 55.5 265t154.5 204t226 78 q84 0 137.5 -35t77.5 -96l29 98h98l-155 -518q-10 -31 -18.5 -66.5t-8.5 -54.5q0 -51 60 -51q98 0 181 84t130 211t47 246q0 139 -66.5 242.5t-185.5 159.5t-274 56q-209 0 -380 -105.5t-268.5 -285.5t-97.5 -395q0 -172 73 -296t205 -187.5t304 -63.5q145 0 250.5 37 t205.5 104q23 -23 21 -51q-2 -39 -71.5 -81t-182.5 -69.5t-236 -27.5q-309 0 -488 160t-179 454zM588 555q0 -180 157 -180q93 0 165.5 70.5t112.5 181t40 219.5q0 86 -41 132t-121 46q-94 0 -165.5 -70.5t-109.5 -179t-38 -219.5z" />
<glyph unicode="A" horiz-adv-x="1269" d="M-86 0q150 422 330 766t420 668h112q147 -319 230.5 -663.5t115.5 -770.5h-121q-12 215 -43 416h-763q-84 -197 -160 -416h-121zM240 518h702q-76 438 -240 793q-260 -350 -462 -793z" />
<glyph unicode="B" horiz-adv-x="1259" d="M59 0l201 1434h471q193 0 301.5 -87t108.5 -245q0 -133 -66.5 -236.5t-173.5 -140.5q100 -29 156.5 -106.5t56.5 -186.5q0 -213 -140 -322.5t-413 -109.5h-502zM190 102h365q231 0 336.5 79t105.5 251q0 127 -83 183.5t-267 56.5h-377zM283 770h370q186 0 277.5 81 t91.5 249q0 114 -78 172.5t-227 58.5h-355z" />
<glyph unicode="C" horiz-adv-x="1220" d="M76 547q0 276 86 481t245.5 315.5t374.5 110.5q125 0 230.5 -41t169.5 -117q-14 -29 -35 -46t-39 -17q-23 0 -47 18q-123 96 -283 97q-174 0 -305 -97.5t-202.5 -277.5t-71.5 -420q0 -225 109.5 -345t314.5 -120q215 0 352 135q23 -2 35 -15t12 -34q0 -47 -58.5 -93 t-153.5 -73.5t-196 -27.5q-256 0 -397 147t-141 420z" />
<glyph unicode="D" horiz-adv-x="1376" d="M59 0l201 1434h414q274 0 427.5 -153t153.5 -427q0 -258 -92 -451.5t-262 -298t-397 -104.5h-445zM190 102h308q196 0 339.5 90.5t220.5 259.5t77 400t-120 355t-345 124h-308z" />
<glyph unicode="E" d="M59 0l201 1434h856l-14 -103h-740l-75 -536h641l-13 -103h-643l-82 -590h742q-10 -59 -28.5 -80.5t-67.5 -21.5h-777z" />
<glyph unicode="F" horiz-adv-x="1085" d="M59 0l201 1434h844l-14 -103h-728l-75 -547h639l-15 -102h-639l-96 -682h-117z" />
<glyph unicode="G" horiz-adv-x="1363" d="M98 582q0 260 87 456.5t255 306t402 109.5q150 0 270.5 -48t179.5 -130q-41 -59 -75 -59q-29 0 -52 20q-59 53 -137 83t-192 30q-199 0 -337.5 -97.5t-209 -270.5t-70.5 -400q0 -250 119 -373t326 -123q123 0 216 32t152 85l62 446h-326q-33 0 -45 14.5t-12 49.5 q0 23 4 41h512l-86 -607q-78 -74 -204 -120.5t-275 -46.5q-262 0 -413 154.5t-151 447.5z" />
<glyph unicode="H" horiz-adv-x="1392" d="M59 0l201 1434h119l-90 -637h803l90 637h118l-200 -1434h-119l98 696h-803l-98 -696h-119z" />
<glyph unicode="I" horiz-adv-x="716" d="M184 0l201 1434h117l-201 -1434h-117z" />
<glyph unicode="J" horiz-adv-x="874" d="M-63 35q4 41 20 64.5t37 23.5q14 0 45 -12q8 -2 56 -15.5t106 -13.5q274 0 311 293l150 1059h116l-149 -1059q-25 -184 -141.5 -289.5t-307.5 -105.5q-76 0 -142.5 17t-100.5 38z" />
<glyph unicode="K" horiz-adv-x="1249" d="M88 0l201 1434h117l-91 -646h164q20 0 62 -4l585 650h140l-623 -680q80 -45 141 -164l297 -584q-34 -22 -70 -22h-3q-29 0 -46.5 13t-33.5 48l-250 506q-29 57 -57.5 85t-71.5 39t-121 11h-127l-96 -686h-117z" />
<glyph unicode="L" horiz-adv-x="1050" d="M59 0l201 1434h117l-187 -1334h728l-15 -100h-844z" />
<glyph unicode="M" horiz-adv-x="1697" d="M39 0q70 403 162 777t190 657h123q102 -326 163.5 -562.5t108.5 -486.5q106 242 230.5 476.5t324.5 572.5h123q15 -211 15 -410q0 -438 -54 -1024h-116q55 612 55 1075q0 127 -2 185q-145 -246 -274.5 -501t-286.5 -605h-86q-55 305 -117.5 566t-142.5 540 q-90 -289 -169 -619t-130 -641h-117z" />
<glyph unicode="N" horiz-adv-x="1413" d="M59 0l201 1434h96q20 0 31.5 -6.5t24.5 -26.5l641 -985l143 1018h117l-162 -1153q-25 -160 -25 -226q0 -25 -17 -40t-42 -15h-72l17 131q4 41 4 53q0 68 -45 142l-617 946l-178 -1272h-117z" />
<glyph unicode="O" horiz-adv-x="1392" d="M68 567q0 268 87 469t246.5 309.5t374.5 108.5q244 0 380 -151.5t136 -421.5q0 -281 -84 -483.5t-242.5 -310t-377.5 -107.5q-246 0 -383 155.5t-137 431.5zM188 571q0 -231 107.5 -358t300.5 -127q178 0 308 94t198.5 271.5t68.5 420.5q0 227 -106.5 351.5t-300.5 124.5 q-174 0 -304 -94.5t-201 -270.5t-71 -412z" />
<glyph unicode="P" horiz-adv-x="1259" d="M59 0l201 1434h436q502 0 502 -406q0 -248 -153.5 -381t-440.5 -133h-356l-72 -514h-117zM262 618h326q491 0 491 410q0 156 -96 228.5t-301 72.5h-320z" />
<glyph unicode="Q" horiz-adv-x="1392" d="M68 567q0 268 87 469t246.5 309.5t374.5 108.5q244 0 380 -151.5t136 -421.5q0 -328 -114.5 -549t-325.5 -305q66 -106 98 -154q-14 -18 -36.5 -29.5t-49.5 -11.5q-45 0 -73 53q-49 92 -58 109q-63 -14 -145 -14q-246 0 -383 155.5t-137 431.5zM188 571 q0 -231 107.5 -358t300.5 -127q47 0 86 6l-107 213h123l99 -184q178 69 276 264t98 487q0 227 -106.5 351.5t-300.5 124.5q-174 0 -304 -94.5t-201 -270.5t-71 -412z" />
<glyph unicode="R" horiz-adv-x="1288" d="M59 0l201 1434h465q231 0 355 -89.5t124 -257.5q0 -125 -57 -227t-157.5 -166.5t-229.5 -81.5q59 -51 94 -125l227 -481q-34 -22 -70 -22h-3q-29 0 -47.5 13t-32.5 48l-189 399q-43 94 -106.5 129t-190.5 35h-180l-86 -608h-117zM276 711h338q223 0 344 95t121 271 q0 252 -368 252h-349z" />
<glyph unicode="S" horiz-adv-x="1314" d="M66 283q0 45 25.5 70.5t70.5 27.5q8 -137 119.5 -218t293.5 -81q205 0 324 86t119 238q0 84 -34 137t-115 90t-234 76q-221 55 -321.5 144t-100.5 230q0 170 137 270.5t371 100.5q199 0 330 -89t153 -241q-26 -26 -62 -26h-3q-23 0 -38.5 12t-25.5 43q-39 100 -131 151.5 t-229 51.5q-182 0 -281.5 -71t-99.5 -200q0 -70 31.5 -117.5t104.5 -83.5t200 -69q184 -49 284.5 -100t143.5 -120t43 -173q0 -209 -149.5 -325.5t-418.5 -116.5q-143 0 -258.5 39.5t-182 109.5t-66.5 154z" />
<glyph unicode="T" horiz-adv-x="1093" d="M100 1331l15 103h1032q6 -25 2 -43q-4 -29 -21.5 -44.5t-50.5 -15.5h-397l-186 -1331h-117l186 1331h-463z" />
<glyph unicode="U" horiz-adv-x="1449" d="M121 389q0 49 10 125l129 920h117l-129 -930q-8 -49 -8 -101q0 -164 95 -242.5t290 -78.5q225 0 343.5 102.5t149.5 319.5l129 930h117l-129 -920q-39 -274 -190.5 -404t-436.5 -130q-246 0 -366.5 101t-120.5 308z" />
<glyph unicode="V" horiz-adv-x="1306" d="M145 1434h127q16 -731 283 -1309q426 573 647 1309h127q-248 -799 -729 -1434h-123q-307 639 -332 1434z" />
<glyph unicode="W" horiz-adv-x="1753" d="M115 1434h116q8 -514 166 -1274q123 260 243 542.5t294 731.5h65q66 -502 105 -770.5t84 -503.5q354 735 510 1274h108q-86 -303 -215 -621.5t-364 -812.5h-127q-82 500 -116 738.5t-50 430.5q-76 -209 -184.5 -466t-309.5 -703h-127q-100 457 -146 788.5t-52 645.5z" />
<glyph unicode="X" horiz-adv-x="1191" d="M-68 0q53 168 141.5 303t190 235.5t242.5 219.5q-104 117 -172 209t-115 208.5t-55 258.5h123q12 -180 90 -315.5t219 -287.5q182 154 298 288t179 315h123q-47 -142 -128 -258.5t-174 -209t-230 -208.5q111 -121 183.5 -221.5t122.5 -234.5t56 -302h-127q-2 143 -46 262 t-110.5 213t-167.5 207q-203 -172 -328.5 -323.5t-187.5 -358.5h-127z" />
<glyph unicode="Y" horiz-adv-x="1208" d="M125 1434h129l334 -734l536 734h127l-620 -832l-84 -602h-117l84 602z" />
<glyph unicode="Z" horiz-adv-x="1187" d="M-6 0l14 102l996 1229h-828l14 103h959l-14 -101l-988 -1231h832l-14 -102h-971z" />
<glyph unicode="[" horiz-adv-x="796" d="M78 -174l266 1898h406l-13 -88h-293l-241 -1722h293l-13 -88h-405z" />
<glyph unicode="\" horiz-adv-x="684" d="M-137 1661h106l869 -1774h-107z" />
<glyph unicode="]" horiz-adv-x="796" d="M47 -174l12 88h293l242 1722h-293l12 88h406l-266 -1898h-406z" />
<glyph unicode="^" horiz-adv-x="1345" d="M102 664l627 956h100l365 -956h-117l-317 833l-541 -833h-117z" />
<glyph unicode="_" horiz-adv-x="1400" d="M-162 -307l15 98h1400l-12 -98h-1403z" />
<glyph unicode="`" horiz-adv-x="497" d="M127 1604h129l164 -310h-111z" />
<glyph unicode="a" horiz-adv-x="1142" d="M25 276q0 201 203.5 303.5t615.5 118.5l8 66q4 23 4 61q0 111 -64.5 169.5t-191.5 58.5q-111 0 -203 -42t-182 -122q-10 -10 -29 -10q-18 0 -36.5 15t-30.5 42q102 100 227 155.5t268 55.5q168 0 262.5 -82t94.5 -229q0 -35 -6 -72l-68 -494q-10 -72 -10 -104 q0 -82 45 -131q-12 -16 -37 -30.5t-45 -14.5q-37 0 -58.5 42t-21.5 118l2 36q-80 -96 -189.5 -151t-236.5 -55q-143 0 -232 79.5t-89 216.5zM139 279q0 -96 58.5 -150.5t162.5 -54.5q243 0 431 252l38 278q-360 -12 -525 -90t-165 -235z" />
<glyph unicode="b" horiz-adv-x="1249" d="M53 25q49 80 74 245l190 1350h115l-82 -578q158 104 350 105q199 0 314.5 -122t115.5 -337q0 -209 -66.5 -369.5t-195.5 -249.5t-311 -89q-113 0 -201 35.5t-141 103.5q-16 -53 -37.5 -86t-44.5 -33q-45 0 -80 25zM238 233q53 -76 134 -115.5t183 -39.5q143 0 247.5 79 t159 217t54.5 314q0 174 -90 269.5t-242 95.5q-180 0 -348 -123z" />
<glyph unicode="c" horiz-adv-x="1120" d="M35 475q0 199 72.5 351.5t204.5 236.5t304 84q193 0 299.5 -93t108.5 -261q-37 -20 -72 -21q-18 0 -29.5 12.5t-15.5 44.5q-10 113 -87 169.5t-216 56.5q-131 0 -234.5 -72t-160.5 -201t-57 -295q0 -190 97 -300.5t263 -110.5q123 0 204 48t150 161q27 0 43.5 -15.5 t16.5 -42.5q0 -66 -56.5 -123t-151.5 -90.5t-204 -33.5q-223 0 -351 133t-128 362z" />
<glyph unicode="d" horiz-adv-x="1224" d="M43 442q0 213 73.5 372t208 246t314.5 87q88 0 175 -28.5t142 -76.5l80 578h113l-191 -1358q-14 -98 -14 -164q0 -33 8 -82q-38 -24 -72 -24h-3q-47 0 -48 102v35q-76 -74 -172 -111.5t-206 -37.5q-190 0 -299 123.5t-109 338.5zM160 449q0 -180 78.5 -276.5t224.5 -96.5 q108 0 206.5 45t176.5 133l94 676q-57 59 -138 92t-173 33q-139 0 -246 -76t-165 -213t-58 -317z" />
<glyph unicode="e" d="M53 453q0 211 71 367.5t200 241.5t303 85q199 0 305 -104.5t106 -301.5q0 -82 -16 -192h-846q-4 -57 -4 -90q0 -180 88 -280.5t246 -100.5q244 0 340 176q20 35 51 35q33 0 72 -33q-66 -137 -184.5 -206.5t-286.5 -69.5q-207 0 -326 125.5t-119 347.5zM188 643h730 q8 41 8 102q0 152 -78 230t-230 78q-167 0 -280 -108.5t-150 -301.5z" />
<glyph unicode="f" horiz-adv-x="686" d="M53 1036l13 90h210l21 152q20 150 113.5 237t228.5 87q88 0 133 -22q41 -19 41 -55v-7q0 -18 -10 -31.5t-23 -13.5q-46 32 -139 32h-6q-94 0 -151.5 -58t-73.5 -171l-21 -150h281l-13 -90h-280l-146 -1036h-112l145 1036h-211z" />
<glyph unicode="g" horiz-adv-x="1198" d="M-35 -139q0 100 68.5 170.5t183.5 89.5v6q-51 10 -82 47t-31 84q0 70 51.5 115t141.5 57q-78 43 -122 115.5t-44 163.5q0 217 126 327.5t370 110.5q154 0 260 -68q59 49 124.5 78t123.5 29q33 0 47 -11.5t14 -37.5q0 -27 -8 -52q-164 0 -242 -59q74 -84 74 -201 q0 -448 -500 -448h-2q-164 0 -237.5 -24.5t-73.5 -80.5q0 -47 72.5 -66.5t252.5 -19.5q221 0 339 -65.5t118 -190.5q0 -170 -142 -257t-419 -87q-219 0 -341 72t-122 203zM84 -129q0 -188 350 -188q221 0 328.5 57t107.5 176q0 88 -90 129t-284 41q-209 0 -310.5 -53 t-101.5 -162zM248 715q0 -117 73.5 -179.5t210.5 -62.5q371 0 371 350q0 231 -289 232q-180 0 -273 -86t-93 -254z" />
<glyph unicode="h" horiz-adv-x="1290" d="M70 0l227 1620h113l-86 -612q217 139 436 139q160 0 250 -84t90 -229q0 -18 -4 -64l-109 -770h-113l107 756q4 23 4 65q0 113 -63.5 171.5t-186.5 58.5q-96 0 -211.5 -42t-216.5 -112l-125 -897h-112z" />
<glyph unicode="i" horiz-adv-x="591" d="M123 0l158 1126h112l-157 -1126h-113zM295 1409q0 12 2 18l2 17q4 37 27.5 56.5t60.5 19.5h14q67 0 67 -59q0 -8 -1 -17l-2 -17q-6 -37 -28.5 -57t-59.5 -20h-15q-32 0 -49.5 15t-17.5 44z" />
<glyph unicode="j" horiz-adv-x="552" d="M-272 -319q0 18 10 35.5t20 19.5q57 -31 154 -31q72 0 116 42t56 124l176 1255h113l-176 -1245q-18 -133 -99.5 -203.5t-203.5 -70.5q-46 0 -92 12t-64 31q-10 10 -10 31zM272 1409q0 12 2 18l2 17q4 37 27.5 56.5t60.5 19.5h14q67 0 67 -59q0 -8 -1 -17l-2 -17 q-6 -37 -28.5 -57t-59.5 -20h-15q-32 0 -49.5 15t-17.5 44z" />
<glyph unicode="k" horiz-adv-x="1120" d="M70 0l227 1620h113l-138 -977l107 2q61 2 95 17.5t75 62.5l371 401h135l-418 -444q-41 -45 -76 -64q107 -24 156 -118l246 -500q-20 0 -51 -3t-48 -3q-31 0 -47 29l-201 417q-31 63 -84 87q-49 22 -136 22h-15l-123 -6l-76 -543h-112z" />
<glyph unicode="l" horiz-adv-x="550" d="M102 0l228 1620h112l-227 -1620h-113z" />
<glyph unicode="m" horiz-adv-x="1867" d="M70 0l112 795q27 197 27 254q0 35 -8 55q49 31 88 31t39 -70q0 -37 -4 -59v-7q180 147 387 148q94 0 162.5 -42t97.5 -118q182 160 405 160q144 0 224.5 -75t80.5 -204q0 -18 -4 -59l-112 -809h-113l113 803q4 37 4 53q0 199 -223 199q-90 0 -181.5 -41t-175.5 -119 q0 -51 -4 -78l-115 -817h-112l114 813q4 37 5 53q0 90 -49.5 139.5t-143.5 49.5q-193 0 -377 -172l-125 -883h-112z" />
<glyph unicode="n" horiz-adv-x="1249" d="M68 0l112 795q27 197 27 254q0 35 -8 55q49 31 88 31t39 -70q0 -37 -4 -59l-5 -23q217 164 441 164q305 0 305 -289q0 -27 -8 -96l-72 -520q-16 -119 -16 -154q0 -43 14 -74q-16 -10 -39.5 -17t-44.5 -7q-23 0 -34 20.5t-11 65.5q0 51 12 133l78 555q6 47 6 86 q0 106 -52 156.5t-163 50.5q-100 0 -210.5 -49.5t-219.5 -139.5l-123 -868h-112z" />
<glyph unicode="o" horiz-adv-x="1122" d="M31 410q0 229 68.5 395t197.5 254t307 88q410 0 410 -424q0 -231 -68.5 -398t-198 -256t-307.5 -89q-409 0 -409 430zM145 414q0 -172 76 -255t234 -83q211 0 327.5 168t116.5 471q0 172 -75.5 255t-231.5 83q-211 0 -329 -168t-118 -471z" />
<glyph unicode="p" horiz-adv-x="1224" d="M8 -451l176 1246q25 195 25 258q0 35 -6 55q20 12 43.5 19.5t40.5 7.5q43 0 43 -72v-12q0 -18 -4 -37v-6q76 66 172 102.5t196 36.5q205 0 313.5 -119t108.5 -344q0 -215 -72.5 -373.5t-208 -244.5t-317.5 -86q-92 0 -179 18t-149 51l-69 -500h-113zM205 154 q61 -37 145 -58.5t176 -21.5q142 0 249.5 74.5t165.5 212t58 321.5q0 182 -79.5 276.5t-231.5 94.5q-98 0 -197.5 -45t-183.5 -129z" />
<glyph unicode="q" horiz-adv-x="1245" d="M45 471q0 205 70.5 357.5t200.5 235.5t305 83q213 0 340 -119q33 106 79 107q43 0 76 -27q-25 -39 -46 -122t-36 -181l-176 -1256h-113l72 519q-127 -88 -311 -88q-211 0 -336 133t-125 358zM162 475q0 -186 97 -294.5t263 -108.5q176 0 312 104l98 711l4 26 q-55 68 -138 105t-184 37q-135 0 -237.5 -72t-158.5 -203t-56 -305z" />
<glyph unicode="r" horiz-adv-x="819" d="M57 0l158 1126h113l-29 -211q63 98 164.5 162t204.5 64q67 0 103 -20.5t36 -55.5q0 -39 -31 -57q-44 28 -129 28h-6q-94 0 -176 -53t-137.5 -146.5t-71.5 -211.5l-86 -625h-113z" />
<glyph unicode="s" horiz-adv-x="993" d="M-8 197q0 63 63 75q37 -90 122 -144t222 -54q145 0 236.5 63.5t91.5 179.5q0 55 -36 93.5t-88 62t-146 55.5q-115 39 -183.5 72t-118 92.5t-49.5 151.5q0 145 111 224t285 79q141 0 243.5 -55.5t149.5 -155.5q-25 -23 -42 -32t-34 -9q-25 0 -43 29q-90 131 -278 131 q-127 0 -202 -54.5t-75 -152.5q0 -59 38 -100t94.5 -68t150.5 -59q111 -39 177.5 -72t113.5 -89.5t47 -140.5q0 -160 -118 -249.5t-327 -89.5q-114 0 -206.5 30.5t-145.5 80.5t-53 106z" />
<glyph unicode="t" horiz-adv-x="765" d="M53 1034l13 92h213l43 308h112l-43 -308h322l-13 -92h-321l-107 -753q-4 -37 -4 -50q0 -76 38 -114.5t112 -38.5q94 0 182 39q20 -14 21 -45q0 -41 -37 -60q-61 -32 -178 -32h-7q-115 0 -181 62t-66 169q0 14 4 47l108 776h-211z" />
<glyph unicode="u" horiz-adv-x="1249" d="M113 297q0 37 6 80l106 749h113l-107 -753q-4 -25 -4 -70q0 -231 240 -231q111 0 215 56t186 163l119 835h113l-125 -895q-10 -78 -10 -125q0 -45 10 -92q-36 -24 -73 -24h-3q-29 0 -41 23.5t-12 74.5q0 16 4 70q-72 -84 -175.5 -131t-217.5 -47q-166 0 -255 82.5 t-89 234.5z" />
<glyph unicode="v" horiz-adv-x="989" d="M72 1008q0 78 2 118h114q-4 -86 -4 -125q0 -244 51.5 -456.5t157.5 -417.5q188 236 307 479.5t183 519.5h114q-70 -307 -209 -584.5t-356 -541.5h-106q-129 229 -191.5 476t-62.5 532z" />
<glyph unicode="w" horiz-adv-x="1556" d="M109 1126h114v-69q0 -492 129 -899q268 440 408 968h106v-41q0 -506 144 -931q266 461 385 972h129q-164 -592 -488 -1126h-96q-76 229 -115 439t-45 427q-70 -217 -166 -427t-231 -439h-100q-88 252 -130 527.5t-44 598.5z" />
<glyph unicode="x" horiz-adv-x="991" d="M-84 0q41 158 157.5 292t311.5 298q-94 106 -152.5 184t-96.5 167t-38 185h121q0 -115 64.5 -220t187.5 -242q162 135 256 241.5t127 220.5h121q-35 -137 -143.5 -259t-292.5 -277q98 -111 161.5 -196t103.5 -185q38 -95 38 -199v-10h-121v7q1 129 -67 244 q-70 118 -201 265q-172 -143 -275.5 -263t-140.5 -253h-121z" />
<glyph unicode="y" horiz-adv-x="993" d="M-156 -317q0 33 35 51q20 -14 57 -23.5t80 -9.5q88 0 166 78t154 239l-266 1108h114l228 -942l477 942h123l-617 -1212q-84 -166 -175 -237.5t-218 -71.5q-72 0 -115 21.5t-43 56.5z" />
<glyph unicode="z" horiz-adv-x="1024" d="M-55 0l10 78l854 952h-666l13 96h831l-10 -73l-852 -955h735l-14 -98h-901z" />
<glyph unicode="{" horiz-adv-x="745" d="M80 698l8 60q88 14 128 63t52 129l62 447q16 119 90 182t174 63h88l-12 -88h-72q-66 0 -109 -35.5t-55 -125.5l-59 -422q-14 -111 -58.5 -165t-121.5 -75l-2 -6q59 -14 89.5 -54t30.5 -114q0 -33 -6 -70l-59 -421q-2 -14 -2 -41q0 -123 121 -123h71l-12 -88h-88 q-88 0 -143.5 51t-55.5 145q0 14 4 51l64 447q4 33 4 45q0 59 -29.5 96t-101.5 49z" />
<glyph unicode="|" horiz-adv-x="495" d="M78 -25l233 1667h99l-234 -1667h-98z" />
<glyph unicode="}" horiz-adv-x="745" d="M63 -186l13 88h71q66 0 109 35.5t55 125.5l60 422q14 111 58 165.5t124 74.5l2 6q-61 14 -92 54t-31 116q0 31 6 68l60 422q4 33 4 45q0 119 -123 118h-72l12 88h89q90 0 145 -51t55 -149q0 -14 -4 -47l-63 -447q-4 -33 -4 -45q0 -59 29.5 -96t101.5 -49l-9 -60 q-88 -14 -127.5 -63t-52.5 -129l-63 -447q-16 -119 -90 -182t-174 -63h-89z" />
<glyph unicode="~" horiz-adv-x="1228" d="M57 514q127 205 328 205q68 0 116 -22.5t109 -67.5q57 -43 101.5 -64.5t105.5 -21.5q76 0 126 45t91 131l70 -53q-39 -98 -117 -159t-194 -61q-70 0 -118 24t-112 69q-59 43 -101 63.5t-100 20.5q-135 0 -235 -177z" />
<glyph unicode="&#xa1;" horiz-adv-x="497" d="M59 -287l162 1012h90l-118 -1012h-134zM227 1036q0 12 2 19l2 14q12 78 88 78h15q67 0 67 -57q0 -14 -2 -21l-2 -14q-12 -78 -88 -78h-14q-68 0 -68 59z" />
<glyph unicode="&#xa2;" horiz-adv-x="1120" d="M35 475q0 199 72.5 351.5t204.5 236.5t304 84q57 0 115 -10l80 170h100l-92 -195q98 -41 150.5 -122t54.5 -197q-37 -20 -72 -21q-18 0 -29.5 12.5t-15.5 44.5q-12 140 -129 193l-430 -911q74 -35 164 -35q123 0 204 48t150 161q27 0 43.5 -15.5t16.5 -42.5 q0 -66 -56.5 -123t-151.5 -90.5t-204 -33.5q-119 0 -209 38l-86 -182h-102l106 225q-92 63 -140 169t-48 245zM152 487q0 -104 30.5 -187t87.5 -136l418 885q-37 6 -84 6q-131 0 -234.5 -72t-160.5 -201t-57 -295z" />
<glyph unicode="&#xa3;" horiz-adv-x="1247" d="M-88 -20l16 114q174 27 255 133.5t81 298.5q0 57 -10 140h-250l12 98h226q-12 119 -13 178q0 236 114 374t333 138q176 0 292.5 -92t127.5 -256q-41 -27 -76 -27t-43 45q-55 233 -305 234q-336 0 -336 -418q0 -61 12 -176h397l-14 -98h-371q12 -76 13 -148 q0 -205 -92 -338q121 -102 278 -102q260 0 330 276l100 -24q-33 -164 -150.5 -257t-277.5 -93q-117 0 -198.5 31.5t-151.5 90.5q-115 -98 -299 -122z" />
<glyph unicode="&#xa4;" horiz-adv-x="1247" d="M8 268l129 113q-72 98 -71 250q0 47 6 92q31 207 161 340l-98 113l92 81l103 -116q76 57 167 86.5t185 29.5q199 0 324 -116l131 116l69 -81l-127 -113q72 -106 72 -246q0 -29 -8 -94q-29 -213 -160 -342l96 -113l-94 -82l-98 113q-164 -113 -355 -113q-94 0 -177 29 t-144 84l-135 -113zM182 651q0 -160 100.5 -260t264.5 -100q121 0 225.5 55t172 153.5t83.5 223.5q6 41 6 76q0 160 -100 258t-266 98q-121 0 -224.5 -55.5t-171 -153.5t-86.5 -223q-4 -25 -4 -72z" />
<glyph unicode="&#xa5;" horiz-adv-x="1208" d="M92 354l14 95h388l20 153l-31 64h-346l13 94h290l-315 674h129l334 -734l536 734h127l-503 -674h290l-12 -94h-348l-47 -64l-21 -153h385l-14 -95h-385l-49 -354h-117l49 354h-387z" />
<glyph unicode="&#xa6;" horiz-adv-x="495" d="M78 -25l88 629h98l-88 -629h-98zM223 1014l88 628h99l-88 -628h-99z" />
<glyph unicode="&#xa7;" horiz-adv-x="983" d="M23 111l104 18q-4 -98 58.5 -156.5t185.5 -58.5q127 0 205.5 64.5t78.5 173.5q0 51 -27.5 84.5t-88.5 58.5l-277 125q-82 37 -124 106.5t-42 159.5q0 20 4 62h103q-4 -33 -4 -50q0 -139 139 -204l262 -117q160 -76 160 -225q0 -106 -54.5 -181t-143.5 -113t-195 -38 q-164 0 -258.5 82t-85.5 209zM166 1118q0 104 53 179t143.5 113t194.5 38q164 0 254 -81t80 -210l-103 -18q4 98 -54 156.5t-179 58.5q-127 0 -206 -63.5t-79 -174.5q0 -51 28 -84t89 -59l287 -125q80 -35 117.5 -100.5t37.5 -155.5q0 -35 -6 -72h-102q6 31 6 58 q0 141 -129 196l-266 117q-80 35 -123 93t-43 134z" />
<glyph unicode="&#xa8;" horiz-adv-x="618" d="M115 1415l2 17q4 37 27.5 56t60.5 19h14q76 0 66 -75l-2 -17q-4 -37 -28 -57.5t-60 -20.5h-15q-37 0 -53 20.5t-12 57.5zM500 1415l2 17q4 37 27.5 56t60.5 19h14q76 0 66 -75l-2 -17q-4 -37 -28 -57.5t-60 -20.5h-15q-37 0 -53 20.5t-12 57.5z" />
<glyph unicode="&#xa9;" horiz-adv-x="1585" d="M31 623q0 231 108.5 421.5t299 300t425.5 109.5q201 0 349.5 -79t228.5 -222t80 -332q0 -231 -107.5 -423.5t-297 -305t-429.5 -112.5q-199 0 -348.5 80.5t-229 227t-79.5 335.5zM129 623q0 -162 71.5 -289t198.5 -196.5t289 -69.5q207 0 376 100t265 272t96 381 q0 162 -71.5 287t-199.5 192.5t-290 67.5q-207 0 -376 -97t-264 -268.5t-95 -379.5zM389 643q0 145 56.5 263t161 186.5t241.5 68.5t220 -67.5t99 -188.5l-94 -37q-10 98 -67.5 151.5t-163.5 53.5q-168 0 -260.5 -119.5t-92.5 -304.5q0 -133 70 -211t193 -78q94 0 162.5 43 t105.5 123l94 -34q-125 -221 -369 -222q-161 0 -258.5 100.5t-97.5 272.5z" />
<glyph unicode="&#xaa;" horiz-adv-x="778" d="M104 915q0 154 142.5 207.5t390.5 55.5q4 45 4 57q0 145 -166 145q-63 0 -109.5 -18.5t-84.5 -48.5q-23 -18 -33 -23.5t-25 -5.5q-20 0 -32.5 14.5t-16.5 34.5q129 125 318 125q106 0 175.5 -55t69.5 -164q1 -51 -24 -211q-27 -145 -27 -213q0 -33 6 -57q-25 -20 -65 -21 q-41 0 -41 68q0 10 4 55q-113 -125 -275 -125q-90 0 -150.5 47t-60.5 133zM201 922q0 -51 32.5 -79t98.5 -28q78 0 155.5 45t118.5 107l21 135q-201 -4 -313.5 -41t-112.5 -139z" />
<glyph unicode="&#xab;" horiz-adv-x="1024" d="M109 590l309 336h96l-291 -336l195 -350h-96zM426 590l309 336h96l-291 -336l195 -350h-96z" />
<glyph unicode="&#xac;" horiz-adv-x="1228" d="M78 649l12 92h1004l-68 -471h-96l55 379h-907z" />
<glyph unicode="&#xad;" horiz-adv-x="778" d="M45 567l12 97h615l-13 -97h-614z" />
<glyph unicode="&#xae;" horiz-adv-x="1585" d="M31 623q0 231 108.5 421.5t299 300t425.5 109.5q201 0 349.5 -79t228.5 -222t80 -332q0 -231 -107.5 -423.5t-297 -305t-429.5 -112.5q-199 0 -348.5 80.5t-229 227t-79.5 335.5zM129 623q0 -162 71.5 -289t198.5 -196.5t289 -69.5q207 0 376 100t265 272t96 381 q0 162 -71.5 287t-199.5 192.5t-290 67.5q-207 0 -376 -97t-264 -268.5t-95 -379.5zM446 297l115 815h324q123 0 192.5 -58.5t69.5 -164.5q0 -117 -67.5 -188.5t-178.5 -88.5l146 -315h-107l-135 311h-217l-43 -311h-99zM600 692h227q111 0 165.5 50.5t54.5 146.5 q0 66 -43 103.5t-130 37.5h-227z" />
<glyph unicode="&#xaf;" horiz-adv-x="497" d="M-14 1339l12 101h670l-15 -101h-667z" />
<glyph unicode="&#xb0;" horiz-adv-x="897" d="M184 1282q0 100 46 182t128 130t189 48q137 0 219 -82.5t82 -211.5q0 -100 -45 -183.5t-128 -131.5t-190 -48q-137 0 -219 83t-82 214zM279 1282q0 -96 56 -153.5t152 -57.5q123 0 195 75t72 202q0 96 -55.5 153.5t-153.5 57.5q-123 0 -194.5 -76t-71.5 -201z" />
<glyph unicode="&#xb1;" horiz-adv-x="1228" d="M-35 0l12 90h1065l-12 -90h-1065zM68 729l12 90h487l66 469h94l-65 -469h483l-12 -90h-484l-67 -473h-95l68 473h-487z" />
<glyph unicode="&#xb2;" horiz-adv-x="681" d="M8 578l12 73l64 35q172 96 273.5 162.5t173 152.5t71.5 185q0 86 -45 134t-131 48q-96 0 -154.5 -49t-76.5 -139q-72 0 -72 57q0 53 41 103.5t110.5 82t153.5 31.5q131 0 199.5 -72.5t68.5 -197.5q0 -111 -71.5 -203t-173 -161.5t-256.5 -155.5h415l-12 -86h-590z" />
<glyph unicode="&#xb3;" horiz-adv-x="718" d="M35 715q0 47 53 57q96 -121 246 -121q117 0 182.5 52.5t65.5 146.5q0 143 -174 143l-89 -2q-20 0 -33.5 23.5t-11.5 48.5q0 14 15 14h117q102 0 153 45t51 123q0 59 -44 94t-128 35q-88 0 -144 -32.5t-108 -108.5q-18 0 -30.5 12t-12.5 33q0 43 41 84t109.5 66.5 t150.5 25.5q117 0 190 -55.5t73 -149.5q0 -70 -37 -126t-113 -83q53 -24 87 -72t34 -118q0 -129 -93 -205t-257 -76q-82 0 -149.5 21.5t-105.5 55.5t-38 69z" />
<glyph unicode="&#xb4;" horiz-adv-x="497" d="M223 1294l258 310h137l-276 -310h-119z" />
<glyph unicode="&#xb6;" horiz-adv-x="1075" d="M74 1028q0 156 69.5 270.5t196.5 176t293 61.5h541l-13 -84h-162l-202 -1452h-99l203 1452h-219l-203 -1452h-98l94 672q-182 0 -291.5 97t-109.5 259z" />
<glyph unicode="&#xb7;" horiz-adv-x="630" d="M193 565l2 16q12 78 88 78h14q68 0 68 -59q0 -12 -2 -19l-2 -16q-10 -78 -86 -78h-14q-78 0 -68 78z" />
<glyph unicode="&#xb8;" horiz-adv-x="497" d="M-166 -397q0 12 10 37q86 -27 179 -27q78 0 121.5 34t43.5 83q0 35 -24.5 55t-75.5 20q-35 0 -84 -12l-31 53l138 154h102l-111 -119q8 2 27 2q76 0 122 -35.5t46 -103.5q0 -98 -82 -155.5t-195 -57.5q-88 0 -137 17.5t-49 54.5z" />
<glyph unicode="&#xb9;" horiz-adv-x="776" d="M119 578l12 81h195l94 670q-41 -35 -85 -57.5t-83 -22.5q-31 0 -44 18.5t-9 47.5q63 6 133.5 42t130.5 97h63l-110 -795h178l-12 -81h-463z" />
<glyph unicode="&#xba;" horiz-adv-x="778" d="M104 1012q0 123 44.5 224t129 159.5t199.5 58.5q133 0 202 -78t69 -209q0 -121 -45.5 -220t-129.5 -157.5t-196 -58.5q-133 0 -203 76t-70 205zM199 1016q0 -102 49 -153.5t139 -51.5q131 0 198.5 102.5t67.5 253.5q0 104 -48 156.5t-138 52.5q-131 0 -199.5 -104.5 t-68.5 -255.5z" />
<glyph unicode="&#xbb;" horiz-adv-x="1024" d="M193 240l290 335l-194 351h96l213 -351l-309 -335h-96zM510 240l291 335l-195 351h96l213 -351l-309 -335h-96z" />
<glyph unicode="&#xbc;" horiz-adv-x="2080" d="M119 578l12 81h195l94 670q-41 -35 -85 -57.5t-83 -22.5q-31 0 -44 18.5t-9 47.5q63 6 133.5 42t130.5 97h63l-110 -795h178l-12 -81h-463zM567 0l807 1434h90l-807 -1434h-90zM1276 200l6 47q143 162 232 309.5t122 309.5q20 4 31 4q53 0 47 -57q-6 -104 -97.5 -254 t-201.5 -275h311l39 279h90l-39 -279h123l-12 -84h-123l-29 -200h-90l29 200h-438z" />
<glyph unicode="&#xbd;" horiz-adv-x="1970" d="M119 578l12 81h195l94 670q-41 -35 -85 -57.5t-83 -22.5q-31 0 -44 18.5t-9 47.5q63 6 133.5 42t130.5 97h63l-110 -795h178l-12 -81h-463zM567 0l807 1434h90l-807 -1434h-90zM1214 3l12 73l64 35q172 96 273.5 162.5t173 152.5t71.5 185q0 86 -45 134t-131 48 q-96 0 -154.5 -49t-76.5 -139q-72 0 -72 57q0 53 41 103.5t110.5 82t153.5 31.5q131 0 199.5 -72.5t68.5 -197.5q0 -111 -71.5 -203t-173 -161.5t-256.5 -155.5h415l-12 -86h-590z" />
<glyph unicode="&#xbe;" horiz-adv-x="2023" d="M35 715q0 47 53 57q96 -121 246 -121q117 0 182.5 52.5t65.5 146.5q0 143 -174 143l-89 -2q-20 0 -33.5 23.5t-11.5 48.5q0 14 15 14h117q102 0 153 45t51 123q0 59 -44 94t-128 35q-88 0 -144 -32.5t-108 -108.5q-18 0 -30.5 12t-12.5 33q0 43 41 84t109.5 66.5 t150.5 25.5q117 0 190 -55.5t73 -149.5q0 -70 -37 -126t-113 -83q53 -24 87 -72t34 -118q0 -129 -93 -205t-257 -76q-82 0 -149.5 21.5t-105.5 55.5t-38 69zM510 0l807 1434h90l-807 -1434h-90zM1219 200l6 47q143 162 232 309.5t122 309.5q20 4 31 4q53 0 47 -57 q-6 -104 -97.5 -254t-201.5 -275h311l39 279h90l-39 -279h123l-12 -84h-123l-29 -200h-90l29 200h-438z" />
<glyph unicode="&#xbf;" horiz-adv-x="972" d="M-14 2q0 117 58 197t177 168l35 24q109 82 161 141.5t64 149.5l11 61h106l-12 -81q-12 -78 -55.5 -140.5t-91.5 -103.5t-152 -121q-96 -74 -142.5 -137.5t-46.5 -155.5q0 -106 70 -165.5t199 -59.5q133 0 219 68.5t139 189.5l92 -49q-57 -141 -175 -225.5t-284 -84.5 t-269 85t-103 239zM498 1026l2 31q12 74 88 73h14q72 1 68 -67l-4 -33q-12 -70 -88 -69h-15q-72 0 -65 65z" />
<glyph unicode="&#xc0;" horiz-adv-x="1269" d="M-86 0q150 422 330 766t420 668h112q147 -319 230.5 -663.5t115.5 -770.5h-121q-12 215 -43 416h-763q-84 -197 -160 -416h-121zM240 518h702q-76 438 -240 793q-260 -350 -462 -793zM557 1829h129l164 -310h-111z" />
<glyph unicode="&#xc1;" horiz-adv-x="1269" d="M-86 0q150 422 330 766t420 668h112q147 -319 230.5 -663.5t115.5 -770.5h-121q-12 215 -43 416h-763q-84 -197 -160 -416h-121zM240 518h702q-76 438 -240 793q-260 -350 -462 -793zM628 1519l258 310h137l-276 -310h-119z" />
<glyph unicode="&#xc2;" horiz-adv-x="1269" d="M-86 0q150 422 330 766t420 668h112q147 -319 230.5 -663.5t115.5 -770.5h-121q-12 215 -43 416h-763q-84 -197 -160 -416h-121zM240 518h702q-76 438 -240 793q-260 -350 -462 -793zM438 1519l277 273h109l200 -273h-106l-154 191l-211 -191h-115z" />
<glyph unicode="&#xc3;" horiz-adv-x="1269" d="M-86 0q150 422 330 766t420 668h112q147 -319 230.5 -663.5t115.5 -770.5h-121q-12 215 -43 416h-763q-84 -197 -160 -416h-121zM240 518h702q-76 438 -240 793q-260 -350 -462 -793zM434 1587q0 66 58.5 107.5t138.5 41.5q43 0 76 -16t69 -45q33 -25 56.5 -37t52.5 -12 q49 0 75.5 27.5t39.5 89.5q63 0 63 -60q0 -59 -53 -103t-129 -44q-49 0 -82 15t-74 46q-33 25 -56.5 37t-53.5 12q-47 0 -76 -27.5t-45 -86.5q-60 0 -60 55z" />
<glyph unicode="&#xc4;" horiz-adv-x="1269" d="M-86 0q150 422 330 766t420 668h112q147 -319 230.5 -663.5t115.5 -770.5h-121q-12 215 -43 416h-763q-84 -197 -160 -416h-121zM240 518h702q-76 438 -240 793q-260 -350 -462 -793zM474 1640l2 17q4 37 27.5 56t60.5 19h14q76 0 66 -75l-2 -17q-4 -37 -28 -57.5 t-60 -20.5h-15q-37 0 -53 20.5t-12 57.5zM859 1640l2 17q4 37 27.5 56t60.5 19h14q76 0 66 -75l-2 -17q-4 -37 -28 -57.5t-60 -20.5h-15q-37 0 -53 20.5t-12 57.5z" />
<glyph unicode="&#xc5;" horiz-adv-x="1269" d="M-86 0q150 422 330 766t420 668h112q147 -319 230.5 -663.5t115.5 -770.5h-121q-12 215 -43 416h-763q-84 -197 -160 -416h-121zM240 518h702q-76 438 -240 793q-260 -350 -462 -793zM533 1708q0 111 74.5 181.5t181.5 70.5q86 0 142 -53.5t56 -143.5 q0 -113 -73.5 -182.5t-180.5 -69.5q-86 0 -143 54.5t-57 142.5zM621 1714q0 -53 33.5 -86t89.5 -33q67 0 112 46t45 118q0 55 -32.5 86t-87.5 31q-72 0 -116 -47.5t-44 -114.5z" />
<glyph unicode="&#xc6;" horiz-adv-x="1904" d="M-86 0q135 410 410.5 790.5t660.5 643.5h891l-14 -103h-727l-74 -526h639l-14 -103h-639l-84 -602h714q-4 -57 -26.5 -78.5t-71.5 -21.5h-733l59 422h-688q-121 -221 -182 -422h-121zM276 524h644l114 807h-20q-209 -147 -400.5 -357t-337.5 -450z" />
<glyph unicode="&#xc7;" horiz-adv-x="1220" d="M76 547q0 276 86 481t245.5 315.5t374.5 110.5q125 0 230.5 -41t169.5 -117q-14 -29 -35 -46t-39 -17q-23 0 -47 18q-123 96 -283 97q-174 0 -305 -97.5t-202.5 -277.5t-71.5 -420q0 -225 109.5 -345t314.5 -120q215 0 352 135q23 -2 35 -15t12 -34q0 -45 -53.5 -88 t-139.5 -72.5t-182 -33.5l-94 -99q10 2 29 2q74 0 121 -35.5t47 -103.5q0 -98 -82 -155.5t-195 -57.5q-88 0 -137 17.5t-49 54.5q0 12 10 37q86 -27 176 -27q78 0 122 34t44 83q0 76 -98 75q-37 0 -84 -12l-31 53l121 136q-225 20 -348 166.5t-123 398.5z" />
<glyph unicode="&#xc8;" d="M59 0l201 1434h856l-14 -103h-740l-75 -536h641l-13 -103h-643l-82 -590h742q-10 -59 -28.5 -80.5t-67.5 -21.5h-777zM499 1850h129l164 -310h-111z" />
<glyph unicode="&#xc9;" d="M59 0l201 1434h856l-14 -103h-740l-75 -536h641l-13 -103h-643l-82 -590h742q-10 -59 -28.5 -80.5t-67.5 -21.5h-777zM571 1540l258 310h137l-276 -310h-119z" />
<glyph unicode="&#xca;" d="M59 0l201 1434h856l-14 -103h-740l-75 -536h641l-13 -103h-643l-82 -590h742q-10 -59 -28.5 -80.5t-67.5 -21.5h-777zM380 1540l277 273h109l200 -273h-106l-154 191l-211 -191h-115z" />
<glyph unicode="&#xcb;" d="M59 0l201 1434h856l-14 -103h-740l-75 -536h641l-13 -103h-643l-82 -590h742q-10 -59 -28.5 -80.5t-67.5 -21.5h-777zM416 1661l2 17q4 37 27.5 56t60.5 19h14q76 0 66 -75l-2 -17q-4 -37 -28 -57.5t-60 -20.5h-15q-37 0 -53 20.5t-12 57.5zM801 1661l2 17q4 37 27.5 56 t60.5 19h14q76 0 66 -75l-2 -17q-4 -37 -28 -57.5t-60 -20.5h-15q-37 0 -53 20.5t-12 57.5z" />
<glyph unicode="&#xcc;" horiz-adv-x="716" d="M184 0l201 1434h117l-201 -1434h-117zM280 1829h129l164 -310h-111z" />
<glyph unicode="&#xcd;" horiz-adv-x="716" d="M184 0l201 1434h117l-201 -1434h-117zM352 1519l258 310h137l-276 -310h-119z" />
<glyph unicode="&#xce;" horiz-adv-x="716" d="M161 1519l277 273h109l200 -273h-106l-154 191l-211 -191h-115zM184 0l201 1434h117l-201 -1434h-117z" />
<glyph unicode="&#xcf;" horiz-adv-x="716" d="M184 0l201 1434h117l-201 -1434h-117zM197 1640l2 17q4 37 27.5 56t60.5 19h14q76 0 66 -75l-2 -17q-4 -37 -28 -57.5t-60 -20.5h-15q-37 0 -53 20.5t-12 57.5zM582 1640l2 17q4 37 27.5 56t60.5 19h14q76 0 66 -75l-2 -17q-4 -37 -28 -57.5t-60 -20.5h-15 q-37 0 -53 20.5t-12 57.5z" />
<glyph unicode="&#xd0;" horiz-adv-x="1376" d="M-20 682l12 94h176l92 658h414q274 0 427.5 -153t153.5 -427q0 -258 -92 -451.5t-262 -298t-397 -104.5h-445l97 682h-176zM190 102h308q196 0 339.5 90.5t220.5 259.5t77 400t-120 355t-345 124h-308l-77 -555h415l-14 -94h-414z" />
<glyph unicode="&#xd1;" horiz-adv-x="1413" d="M59 0l201 1434h96q20 0 31.5 -6.5t24.5 -26.5l641 -985l143 1018h117l-162 -1153q-25 -160 -25 -226q0 -25 -17 -40t-42 -15h-72l17 131q4 41 4 53q0 68 -45 142l-617 946l-178 -1272h-117zM503 1587q0 66 58.5 107.5t138.5 41.5q43 0 76 -16t69 -45q33 -25 56.5 -37 t52.5 -12q49 0 75.5 27.5t39.5 89.5q63 0 63 -60q0 -59 -53 -103t-129 -44q-49 0 -82 15t-74 46q-33 25 -56.5 37t-53.5 12q-47 0 -76 -27.5t-45 -86.5q-60 0 -60 55z" />
<glyph unicode="&#xd2;" horiz-adv-x="1392" d="M68 567q0 268 87 469t246.5 309.5t374.5 108.5q244 0 380 -151.5t136 -421.5q0 -281 -84 -483.5t-242.5 -310t-377.5 -107.5q-246 0 -383 155.5t-137 431.5zM188 571q0 -231 107.5 -358t300.5 -127q178 0 308 94t198.5 271.5t68.5 420.5q0 227 -106.5 351.5t-300.5 124.5 q-174 0 -304 -94.5t-201 -270.5t-71 -412zM618 1829h129l164 -310h-111z" />
<glyph unicode="&#xd3;" horiz-adv-x="1392" d="M68 567q0 268 87 469t246.5 309.5t374.5 108.5q244 0 380 -151.5t136 -421.5q0 -281 -84 -483.5t-242.5 -310t-377.5 -107.5q-246 0 -383 155.5t-137 431.5zM188 571q0 -231 107.5 -358t300.5 -127q178 0 308 94t198.5 271.5t68.5 420.5q0 227 -106.5 351.5t-300.5 124.5 q-174 0 -304 -94.5t-201 -270.5t-71 -412zM690 1519l258 310h137l-276 -310h-119z" />
<glyph unicode="&#xd4;" horiz-adv-x="1392" d="M68 567q0 268 87 469t246.5 309.5t374.5 108.5q244 0 380 -151.5t136 -421.5q0 -281 -84 -483.5t-242.5 -310t-377.5 -107.5q-246 0 -383 155.5t-137 431.5zM188 571q0 -231 107.5 -358t300.5 -127q178 0 308 94t198.5 271.5t68.5 420.5q0 227 -106.5 351.5t-300.5 124.5 q-174 0 -304 -94.5t-201 -270.5t-71 -412zM499 1519l277 273h109l200 -273h-106l-154 191l-211 -191h-115z" />
<glyph unicode="&#xd5;" horiz-adv-x="1392" d="M68 567q0 268 87 469t246.5 309.5t374.5 108.5q244 0 380 -151.5t136 -421.5q0 -281 -84 -483.5t-242.5 -310t-377.5 -107.5q-246 0 -383 155.5t-137 431.5zM188 571q0 -231 107.5 -358t300.5 -127q178 0 308 94t198.5 271.5t68.5 420.5q0 227 -106.5 351.5t-300.5 124.5 q-174 0 -304 -94.5t-201 -270.5t-71 -412zM495 1587q0 66 58.5 107.5t138.5 41.5q43 0 76 -16t69 -45q33 -25 56.5 -37t52.5 -12q49 0 75.5 27.5t39.5 89.5q63 0 63 -60q0 -59 -53 -103t-129 -44q-49 0 -82 15t-74 46q-33 25 -56.5 37t-53.5 12q-47 0 -76 -27.5t-45 -86.5 q-60 0 -60 55z" />
<glyph unicode="&#xd6;" horiz-adv-x="1392" d="M68 567q0 268 87 469t246.5 309.5t374.5 108.5q244 0 380 -151.5t136 -421.5q0 -281 -84 -483.5t-242.5 -310t-377.5 -107.5q-246 0 -383 155.5t-137 431.5zM188 571q0 -231 107.5 -358t300.5 -127q178 0 308 94t198.5 271.5t68.5 420.5q0 227 -106.5 351.5t-300.5 124.5 q-174 0 -304 -94.5t-201 -270.5t-71 -412zM535 1640l2 17q4 37 27.5 56t60.5 19h14q76 0 66 -75l-2 -17q-4 -37 -28 -57.5t-60 -20.5h-15q-37 0 -53 20.5t-12 57.5zM920 1640l2 17q4 37 27.5 56t60.5 19h14q76 0 66 -75l-2 -17q-4 -37 -28 -57.5t-60 -20.5h-15 q-37 0 -53 20.5t-12 57.5z" />
<glyph unicode="&#xd7;" horiz-adv-x="1228" d="M150 334l376 330l-282 329l67 62l283 -326l377 326l61 -62l-377 -329l283 -330l-68 -62l-282 328l-377 -328z" />
<glyph unicode="&#xd8;" horiz-adv-x="1392" d="M23 0l147 180q-102 145 -102 387q0 268 87 469t246.5 309.5t374.5 108.5q211 0 344 -117l82 99h123l-139 -170q106 -147 106 -385q0 -281 -84 -483.5t-242.5 -310t-377.5 -107.5q-221 0 -355 126l-88 -106h-122zM188 571q1 -171 64 -292l792 966q-102 102 -280 103 q-174 0 -304 -94.5t-201 -270.5t-71 -412zM309 199q102 -113 287 -113q178 0 308 94t198.5 271.5t68.5 420.5q1 182 -67 295z" />
<glyph unicode="&#xd9;" horiz-adv-x="1449" d="M121 389q0 49 10 125l129 920h117l-129 -930q-8 -49 -8 -101q0 -164 95 -242.5t290 -78.5q225 0 343.5 102.5t149.5 319.5l129 930h117l-129 -920q-39 -274 -190.5 -404t-436.5 -130q-246 0 -366.5 101t-120.5 308zM645 1809h129l164 -310h-111z" />
<glyph unicode="&#xda;" horiz-adv-x="1449" d="M121 389q0 49 10 125l129 920h117l-129 -930q-8 -49 -8 -101q0 -164 95 -242.5t290 -78.5q225 0 343.5 102.5t149.5 319.5l129 930h117l-129 -920q-39 -274 -190.5 -404t-436.5 -130q-246 0 -366.5 101t-120.5 308zM716 1499l258 310h137l-276 -310h-119z" />
<glyph unicode="&#xdb;" horiz-adv-x="1449" d="M121 389q0 49 10 125l129 920h117l-129 -930q-8 -49 -8 -101q0 -164 95 -242.5t290 -78.5q225 0 343.5 102.5t149.5 319.5l129 930h117l-129 -920q-39 -274 -190.5 -404t-436.5 -130q-246 0 -366.5 101t-120.5 308zM526 1499l277 273h109l200 -273h-106l-154 191 l-211 -191h-115z" />
<glyph unicode="&#xdc;" horiz-adv-x="1449" d="M121 389q0 49 10 125l129 920h117l-129 -930q-8 -49 -8 -101q0 -164 95 -242.5t290 -78.5q225 0 343.5 102.5t149.5 319.5l129 930h117l-129 -920q-39 -274 -190.5 -404t-436.5 -130q-246 0 -366.5 101t-120.5 308zM562 1620l2 17q4 37 27.5 56t60.5 19h14q76 0 66 -75 l-2 -17q-4 -37 -28 -57.5t-60 -20.5h-15q-37 0 -53 20.5t-12 57.5zM947 1620l2 17q4 37 27.5 56t60.5 19h14q76 0 66 -75l-2 -17q-4 -37 -28 -57.5t-60 -20.5h-15q-37 0 -53 20.5t-12 57.5z" />
<glyph unicode="&#xdd;" horiz-adv-x="1208" d="M125 1434h129l334 -734l536 734h127l-620 -832l-84 -602h-117l84 602zM597 1519l258 310h137l-276 -310h-119z" />
<glyph unicode="&#xde;" horiz-adv-x="1312" d="M106 0l201 1434h117l-31 -220h309q252 0 373 -107.5t121 -293.5q0 -264 -151.5 -412.5t-436.5 -148.5h-350l-35 -252h-117zM272 352h330q227 0 350 123t123 338q0 143 -88 222t-278 79h-330z" />
<glyph unicode="&#xdf;" horiz-adv-x="1263" d="M55 0l150 1059q29 213 161 325.5t343 112.5q119 0 212 -45t145 -128t52 -191q0 -139 -68.5 -243t-191.5 -149q103 -30 161 -114t58 -203q0 -137 -59.5 -239.5t-167 -158t-250.5 -55.5q-119 0 -216 36t-97 89q0 47 43 60q57 -49 119.5 -69.5t152.5 -20.5q170 0 269.5 96 t99.5 264q0 131 -79 199.5t-216 68.5q-20 0 -58 -4l-51 -2q-29 0 -45 25.5t-14 54.5q4 18 18 18h146q154 0 247 91.5t93 250.5q0 129 -87 203t-229 74q-160 0 -258 -87t-123 -259l-149 -1059h-111z" />
<glyph unicode="&#xe0;" horiz-adv-x="1142" d="M25 276q0 201 203.5 303.5t615.5 118.5l8 66q4 23 4 61q0 111 -64.5 169.5t-191.5 58.5q-111 0 -203 -42t-182 -122q-10 -10 -29 -10q-18 0 -36.5 15t-30.5 42q102 100 227 155.5t268 55.5q168 0 262.5 -82t94.5 -229q0 -35 -6 -72l-68 -494q-10 -72 -10 -104 q0 -82 45 -131q-12 -16 -37 -30.5t-45 -14.5q-37 0 -58.5 42t-21.5 118l2 36q-80 -96 -189.5 -151t-236.5 -55q-143 0 -232 79.5t-89 216.5zM139 279q0 -96 58.5 -150.5t162.5 -54.5q243 0 431 252l38 278q-360 -12 -525 -90t-165 -235zM458 1604h129l164 -310h-111z" />
<glyph unicode="&#xe1;" horiz-adv-x="1142" d="M25 276q0 201 203.5 303.5t615.5 118.5l8 66q4 23 4 61q0 111 -64.5 169.5t-191.5 58.5q-111 0 -203 -42t-182 -122q-10 -10 -29 -10q-18 0 -36.5 15t-30.5 42q102 100 227 155.5t268 55.5q168 0 262.5 -82t94.5 -229q0 -35 -6 -72l-68 -494q-10 -72 -10 -104 q0 -82 45 -131q-12 -16 -37 -30.5t-45 -14.5q-37 0 -58.5 42t-21.5 118l2 36q-80 -96 -189.5 -151t-236.5 -55q-143 0 -232 79.5t-89 216.5zM139 279q0 -96 58.5 -150.5t162.5 -54.5q243 0 431 252l38 278q-360 -12 -525 -90t-165 -235zM530 1294l258 310h137l-276 -310 h-119z" />
<glyph unicode="&#xe2;" horiz-adv-x="1142" d="M25 276q0 201 203.5 303.5t615.5 118.5l8 66q4 23 4 61q0 111 -64.5 169.5t-191.5 58.5q-111 0 -203 -42t-182 -122q-10 -10 -29 -10q-18 0 -36.5 15t-30.5 42q102 100 227 155.5t268 55.5q168 0 262.5 -82t94.5 -229q0 -35 -6 -72l-68 -494q-10 -72 -10 -104 q0 -82 45 -131q-12 -16 -37 -30.5t-45 -14.5q-37 0 -58.5 42t-21.5 118l2 36q-80 -96 -189.5 -151t-236.5 -55q-143 0 -232 79.5t-89 216.5zM139 279q0 -96 58.5 -150.5t162.5 -54.5q243 0 431 252l38 278q-360 -12 -525 -90t-165 -235zM339 1294l277 273h109l200 -273h-106 l-154 191l-211 -191h-115z" />
<glyph unicode="&#xe3;" horiz-adv-x="1142" d="M25 276q0 201 203.5 303.5t615.5 118.5l8 66q4 23 4 61q0 111 -64.5 169.5t-191.5 58.5q-111 0 -203 -42t-182 -122q-10 -10 -29 -10q-18 0 -36.5 15t-30.5 42q102 100 227 155.5t268 55.5q168 0 262.5 -82t94.5 -229q0 -35 -6 -72l-68 -494q-10 -72 -10 -104 q0 -82 45 -131q-12 -16 -37 -30.5t-45 -14.5q-37 0 -58.5 42t-21.5 118l2 36q-80 -96 -189.5 -151t-236.5 -55q-143 0 -232 79.5t-89 216.5zM139 279q0 -96 58.5 -150.5t162.5 -54.5q243 0 431 252l38 278q-360 -12 -525 -90t-165 -235zM335 1362q0 66 58.5 107.5 t138.5 41.5q43 0 76 -16t69 -45q33 -25 56.5 -37t52.5 -12q49 0 75.5 27.5t39.5 89.5q63 0 63 -60q0 -59 -53 -103t-129 -44q-49 0 -82 15t-74 46q-33 25 -56.5 37t-53.5 12q-47 0 -76 -27.5t-45 -86.5q-60 0 -60 55z" />
<glyph unicode="&#xe4;" horiz-adv-x="1142" d="M25 276q0 201 203.5 303.5t615.5 118.5l8 66q4 23 4 61q0 111 -64.5 169.5t-191.5 58.5q-111 0 -203 -42t-182 -122q-10 -10 -29 -10q-18 0 -36.5 15t-30.5 42q102 100 227 155.5t268 55.5q168 0 262.5 -82t94.5 -229q0 -35 -6 -72l-68 -494q-10 -72 -10 -104 q0 -82 45 -131q-12 -16 -37 -30.5t-45 -14.5q-37 0 -58.5 42t-21.5 118l2 36q-80 -96 -189.5 -151t-236.5 -55q-143 0 -232 79.5t-89 216.5zM139 279q0 -96 58.5 -150.5t162.5 -54.5q243 0 431 252l38 278q-360 -12 -525 -90t-165 -235zM375 1415l2 17q4 37 27.5 56t60.5 19 h14q76 0 66 -75l-2 -17q-4 -37 -28 -57.5t-60 -20.5h-15q-37 0 -53 20.5t-12 57.5zM760 1415l2 17q4 37 27.5 56t60.5 19h14q76 0 66 -75l-2 -17q-4 -37 -28 -57.5t-60 -20.5h-15q-37 0 -53 20.5t-12 57.5z" />
<glyph unicode="&#xe5;" horiz-adv-x="1142" d="M25 276q0 201 203.5 303.5t615.5 118.5l8 66q4 23 4 61q0 111 -64.5 169.5t-191.5 58.5q-111 0 -203 -42t-182 -122q-10 -10 -29 -10q-18 0 -36.5 15t-30.5 42q102 100 227 155.5t268 55.5q168 0 262.5 -82t94.5 -229q0 -35 -6 -72l-68 -494q-10 -72 -10 -104 q0 -82 45 -131q-12 -16 -37 -30.5t-45 -14.5q-37 0 -58.5 42t-21.5 118l2 36q-80 -96 -189.5 -151t-236.5 -55q-143 0 -232 79.5t-89 216.5zM139 279q0 -96 58.5 -150.5t162.5 -54.5q243 0 431 252l38 278q-360 -12 -525 -90t-165 -235zM434 1483q0 111 74.5 181.5 t181.5 70.5q86 0 142 -53.5t56 -143.5q0 -113 -73.5 -182.5t-180.5 -69.5q-86 0 -143 54.5t-57 142.5zM522 1489q0 -53 33.5 -86t89.5 -33q67 0 112 46t45 118q0 55 -32.5 86t-87.5 31q-72 0 -116 -47.5t-44 -114.5z" />
<glyph unicode="&#xe6;" horiz-adv-x="1900" d="M23 258q0 162 108.5 250t285.5 118.5t425 32.5q18 139 18 170q0 117 -69.5 170.5t-200.5 53.5q-205 0 -373 -148q-20 -16 -35 -16q-29 0 -63 61q94 92 215 144.5t264 52.5q139 0 234.5 -55.5t125.5 -163.5q74 102 184.5 160.5t250.5 58.5q406 0 405 -406q0 -59 -24 -170 l-834 -2q-8 -59 -8 -137q0 -180 85 -269t234 -89q125 0 209 48t154 146q18 27 41 27q29 0 71 -33q-68 -137 -188.5 -212t-298.5 -75q-137 0 -236.5 59.5t-146.5 176.5q-94 -117 -216 -176.5t-290 -59.5q-145 0 -236 79t-91 204zM137 272q0 -90 60.5 -145t162.5 -55 q158 0 274 67.5t189 190.5q-6 47 -6 98q0 80 8 139q-322 0 -505 -60.5t-183 -234.5zM956 659l725 3q8 41 9 90q0 147 -78 226t-232 79q-166 0 -273.5 -108.5t-150.5 -289.5z" />
<glyph unicode="&#xe7;" horiz-adv-x="1120" d="M35 475q0 199 72.5 351.5t204.5 236.5t304 84q193 0 299.5 -93t108.5 -261q-37 -20 -72 -21q-18 0 -29.5 12.5t-15.5 44.5q-10 113 -87 169.5t-216 56.5q-131 0 -234.5 -72t-160.5 -201t-57 -295q0 -190 97 -300.5t263 -110.5q123 0 204 48t150 161q27 0 43.5 -15.5 t16.5 -42.5q0 -66 -56.5 -123t-151.5 -90.5t-204 -33.5h-2l-92 -99q10 2 29 2q74 0 120.5 -35.5t46.5 -103.5q0 -98 -81.5 -155.5t-194.5 -57.5q-88 0 -137 17.5t-49 54.5q0 12 10 37q86 -27 176 -27q78 0 122 34t44 83q0 76 -98 75q-39 0 -84 -12l-31 53l125 140 q-180 29 -281.5 157.5t-101.5 331.5z" />
<glyph unicode="&#xe8;" d="M53 453q0 211 71 367.5t200 241.5t303 85q199 0 305 -104.5t106 -301.5q0 -82 -16 -192h-846q-4 -57 -4 -90q0 -180 88 -280.5t246 -100.5q244 0 340 176q20 35 51 35q33 0 72 -33q-66 -137 -184.5 -206.5t-286.5 -69.5q-207 0 -326 125.5t-119 347.5zM188 643h730 q8 41 8 102q0 152 -78 230t-230 78q-167 0 -280 -108.5t-150 -301.5zM477 1604h129l164 -310h-111z" />
<glyph unicode="&#xe9;" d="M53 453q0 211 71 367.5t200 241.5t303 85q199 0 305 -104.5t106 -301.5q0 -82 -16 -192h-846q-4 -57 -4 -90q0 -180 88 -280.5t246 -100.5q244 0 340 176q20 35 51 35q33 0 72 -33q-66 -137 -184.5 -206.5t-286.5 -69.5q-207 0 -326 125.5t-119 347.5zM188 643h730 q8 41 8 102q0 152 -78 230t-230 78q-167 0 -280 -108.5t-150 -301.5zM548 1294l258 310h137l-276 -310h-119z" />
<glyph unicode="&#xea;" d="M53 453q0 211 71 367.5t200 241.5t303 85q199 0 305 -104.5t106 -301.5q0 -82 -16 -192h-846q-4 -57 -4 -90q0 -180 88 -280.5t246 -100.5q244 0 340 176q20 35 51 35q33 0 72 -33q-66 -137 -184.5 -206.5t-286.5 -69.5q-207 0 -326 125.5t-119 347.5zM188 643h730 q8 41 8 102q0 152 -78 230t-230 78q-167 0 -280 -108.5t-150 -301.5zM358 1294l277 273h109l200 -273h-106l-154 191l-211 -191h-115z" />
<glyph unicode="&#xeb;" d="M53 453q0 211 71 367.5t200 241.5t303 85q199 0 305 -104.5t106 -301.5q0 -82 -16 -192h-846q-4 -57 -4 -90q0 -180 88 -280.5t246 -100.5q244 0 340 176q20 35 51 35q33 0 72 -33q-66 -137 -184.5 -206.5t-286.5 -69.5q-207 0 -326 125.5t-119 347.5zM188 643h730 q8 41 8 102q0 152 -78 230t-230 78q-167 0 -280 -108.5t-150 -301.5zM394 1415l2 17q4 37 27.5 56t60.5 19h14q76 0 66 -75l-2 -17q-4 -37 -28 -57.5t-60 -20.5h-15q-37 0 -53 20.5t-12 57.5zM779 1415l2 17q4 37 27.5 56t60.5 19h14q76 0 66 -75l-2 -17q-4 -37 -28 -57.5 t-60 -20.5h-15q-37 0 -53 20.5t-12 57.5z" />
<glyph unicode="&#xec;" horiz-adv-x="591" d="M123 0l158 1126h112l-157 -1126h-113zM188 1604h129l164 -310h-111z" />
<glyph unicode="&#xed;" horiz-adv-x="591" d="M123 0l158 1126h112l-157 -1126h-113zM260 1294l258 310h137l-276 -310h-119z" />
<glyph unicode="&#xee;" horiz-adv-x="591" d="M69 1294l277 273h109l200 -273h-106l-154 191l-211 -191h-115zM123 0l158 1126h112l-157 -1126h-113z" />
<glyph unicode="&#xef;" horiz-adv-x="591" d="M105 1415l2 17q4 37 27.5 56t60.5 19h14q76 0 66 -75l-2 -17q-4 -37 -28 -57.5t-60 -20.5h-15q-37 0 -53 20.5t-12 57.5zM123 0l158 1126h112l-157 -1126h-113zM490 1415l2 17q4 37 27.5 56t60.5 19h14q76 0 66 -75l-2 -17q-4 -37 -28 -57.5t-60 -20.5h-15 q-37 0 -53 20.5t-12 57.5z" />
<glyph unicode="&#xf0;" horiz-adv-x="1120" d="M33 444q0 203 63.5 362t191.5 250t314 91q154 0 246 -80q-55 164 -176 297l-240 -135l-49 84l217 123q-78 66 -158 110l84 80q98 -63 172 -135l244 137l49 -86l-221 -125q246 -280 246 -694q0 -352 -131 -550t-410 -198q-150 0 -249 64.5t-146 170t-47 234.5zM145 446 q0 -172 84 -274t246 -102q215 0 318.5 168t103.5 440q0 170 -73.5 272.5t-231.5 102.5q-221 0 -334 -168t-113 -439z" />
<glyph unicode="&#xf1;" horiz-adv-x="1249" d="M68 0l112 795q27 197 27 254q0 35 -8 55q49 31 88 31t39 -70q0 -37 -4 -59l-5 -23q217 164 441 164q305 0 305 -289q0 -27 -8 -96l-72 -520q-16 -119 -16 -154q0 -43 14 -74q-16 -10 -39.5 -17t-44.5 -7q-23 0 -34 20.5t-11 65.5q0 51 12 133l78 555q6 47 6 86 q0 106 -52 156.5t-163 50.5q-100 0 -210.5 -49.5t-219.5 -139.5l-123 -868h-112zM393 1362q0 66 58.5 107.5t138.5 41.5q43 0 76 -16t69 -45q33 -25 56.5 -37t52.5 -12q49 0 75.5 27.5t39.5 89.5q63 0 63 -60q0 -59 -53 -103t-129 -44q-49 0 -82 15t-74 46q-33 25 -56.5 37 t-53.5 12q-47 0 -76 -27.5t-45 -86.5q-60 0 -60 55z" />
<glyph unicode="&#xf2;" horiz-adv-x="1122" d="M31 410q0 229 68.5 395t197.5 254t307 88q410 0 410 -424q0 -231 -68.5 -398t-198 -256t-307.5 -89q-409 0 -409 430zM145 414q0 -172 76 -255t234 -83q211 0 327.5 168t116.5 471q0 172 -75.5 255t-231.5 83q-211 0 -329 -168t-118 -471zM452 1604h129l164 -310h-111z " />
<glyph unicode="&#xf3;" horiz-adv-x="1122" d="M31 410q0 229 68.5 395t197.5 254t307 88q410 0 410 -424q0 -231 -68.5 -398t-198 -256t-307.5 -89q-409 0 -409 430zM145 414q0 -172 76 -255t234 -83q211 0 327.5 168t116.5 471q0 172 -75.5 255t-231.5 83q-211 0 -329 -168t-118 -471zM524 1294l258 310h137 l-276 -310h-119z" />
<glyph unicode="&#xf4;" horiz-adv-x="1122" d="M31 410q0 229 68.5 395t197.5 254t307 88q410 0 410 -424q0 -231 -68.5 -398t-198 -256t-307.5 -89q-409 0 -409 430zM145 414q0 -172 76 -255t234 -83q211 0 327.5 168t116.5 471q0 172 -75.5 255t-231.5 83q-211 0 -329 -168t-118 -471zM333 1294l277 273h109l200 -273 h-106l-154 191l-211 -191h-115z" />
<glyph unicode="&#xf5;" horiz-adv-x="1122" d="M31 410q0 229 68.5 395t197.5 254t307 88q410 0 410 -424q0 -231 -68.5 -398t-198 -256t-307.5 -89q-409 0 -409 430zM145 414q0 -172 76 -255t234 -83q211 0 327.5 168t116.5 471q0 172 -75.5 255t-231.5 83q-211 0 -329 -168t-118 -471zM329 1362q0 66 58.5 107.5 t138.5 41.5q43 0 76 -16t69 -45q33 -25 56.5 -37t52.5 -12q49 0 75.5 27.5t39.5 89.5q63 0 63 -60q0 -59 -53 -103t-129 -44q-49 0 -82 15t-74 46q-33 25 -56.5 37t-53.5 12q-47 0 -76 -27.5t-45 -86.5q-60 0 -60 55z" />
<glyph unicode="&#xf6;" horiz-adv-x="1122" d="M31 410q0 229 68.5 395t197.5 254t307 88q410 0 410 -424q0 -231 -68.5 -398t-198 -256t-307.5 -89q-409 0 -409 430zM145 414q0 -172 76 -255t234 -83q211 0 327.5 168t116.5 471q0 172 -75.5 255t-231.5 83q-211 0 -329 -168t-118 -471zM369 1415l2 17q4 37 27.5 56 t60.5 19h14q76 0 66 -75l-2 -17q-4 -37 -28 -57.5t-60 -20.5h-15q-37 0 -53 20.5t-12 57.5zM754 1415l2 17q4 37 27.5 56t60.5 19h14q76 0 66 -75l-2 -17q-4 -37 -28 -57.5t-60 -20.5h-15q-37 0 -53 20.5t-12 57.5z" />
<glyph unicode="&#xf7;" horiz-adv-x="1228" d="M113 618l12 91h942l-12 -91h-942zM418 266q4 39 36.5 69t71.5 30t63.5 -30t20.5 -69q-6 -35 -38.5 -63.5t-71.5 -28.5t-63.5 28.5t-18.5 63.5zM528 1055q0 41 35 74.5t76 33.5q35 0 59.5 -24.5t24.5 -59.5q0 -41 -34 -72.5t-77 -31.5q-34 0 -59 23.5t-25 56.5z" />
<glyph unicode="&#xf8;" horiz-adv-x="1122" d="M-35 0l127 141q-61 102 -61 269q0 229 68.5 395t197.5 254t307 88q193 0 299 -96l68 75h110l-127 -141q59 -102 60 -262q0 -231 -68.5 -398t-198 -256t-307.5 -89q-190 0 -297 96l-67 -76h-111zM145 414q0 -104 29 -178l653 729q-76 88 -235 88q-211 0 -329 -168 t-118 -471zM219 162q78 -86 236 -86q211 0 327.5 168t116.5 471q0 102 -29 176z" />
<glyph unicode="&#xf9;" horiz-adv-x="1247" d="M113 297q0 37 6 80l106 749h113l-107 -753q-4 -25 -4 -70q0 -231 240 -231q111 0 215 56t186 163l119 835h113l-125 -895q-10 -78 -10 -125q0 -45 10 -92q-37 -25 -76 -24q-29 0 -41 23.5t-12 74.5q0 16 4 70q-72 -84 -175.5 -131t-217.5 -47q-166 0 -255 82.5t-89 234.5 zM514 1604h129l164 -310h-111z" />
<glyph unicode="&#xfa;" horiz-adv-x="1247" d="M113 297q0 37 6 80l106 749h113l-107 -753q-4 -25 -4 -70q0 -231 240 -231q111 0 215 56t186 163l119 835h113l-125 -895q-10 -78 -10 -125q0 -45 10 -92q-37 -25 -76 -24q-29 0 -41 23.5t-12 74.5q0 16 4 70q-72 -84 -175.5 -131t-217.5 -47q-166 0 -255 82.5t-89 234.5 zM587 1294l258 310h137l-276 -310h-119z" />
<glyph unicode="&#xfb;" horiz-adv-x="1247" d="M113 297q0 37 6 80l106 749h113l-107 -753q-4 -25 -4 -70q0 -231 240 -231q111 0 215 56t186 163l119 835h113l-125 -895q-10 -78 -10 -125q0 -45 10 -92q-37 -25 -76 -24q-29 0 -41 23.5t-12 74.5q0 16 4 70q-72 -84 -175.5 -131t-217.5 -47q-166 0 -255 82.5t-89 234.5 zM397 1294l277 273h109l200 -273h-106l-154 191l-211 -191h-115z" />
<glyph unicode="&#xfc;" horiz-adv-x="1247" d="M113 297q0 37 6 80l106 749h113l-107 -753q-4 -25 -4 -70q0 -231 240 -231q111 0 215 56t186 163l119 835h113l-125 -895q-10 -78 -10 -125q0 -45 10 -92q-37 -25 -76 -24q-29 0 -41 23.5t-12 74.5q0 16 4 70q-72 -84 -175.5 -131t-217.5 -47q-166 0 -255 82.5t-89 234.5 zM433 1415l2 17q4 37 27.5 56t60.5 19h14q76 0 66 -75l-2 -17q-4 -37 -28 -57.5t-60 -20.5h-15q-37 0 -53 20.5t-12 57.5zM818 1415l2 17q4 37 27.5 56t60.5 19h14q76 0 66 -75l-2 -17q-4 -37 -28 -57.5t-60 -20.5h-15q-37 0 -53 20.5t-12 57.5z" />
<glyph unicode="&#xfd;" horiz-adv-x="993" d="M-156 -317q0 33 35 51q20 -14 57 -23.5t80 -9.5q88 0 166 78t154 239l-266 1108h114l228 -942l477 942h123l-617 -1212q-84 -166 -175 -237.5t-218 -71.5q-72 0 -115 21.5t-43 56.5zM460 1294l258 310h137l-276 -310h-119z" />
<glyph unicode="&#xfe;" horiz-adv-x="1247" d="M8 -451l291 2071h111l-86 -614q80 68 178 104.5t198 36.5q195 0 306.5 -103.5t111.5 -324.5q0 -68 -12 -146q-27 -188 -110 -322t-208.5 -205t-277.5 -71q-182 0 -322 74l-69 -500h-111zM203 152q63 -39 146 -60.5t173 -21.5q176 0 305 130t164 373q10 83 10 134 q0 176 -81.5 261t-231.5 85q-106 0 -203.5 -47.5t-179.5 -122.5z" />
<glyph unicode="&#xff;" horiz-adv-x="993" d="M-156 -317q0 33 35 51q20 -14 57 -23.5t80 -9.5q88 0 166 78t154 239l-266 1108h114l228 -942l477 942h123l-617 -1212q-84 -166 -175 -237.5t-218 -71.5q-72 0 -115 21.5t-43 56.5zM306 1415l2 17q4 37 27.5 56t60.5 19h14q76 0 66 -75l-2 -17q-4 -37 -28 -57.5 t-60 -20.5h-15q-37 0 -53 20.5t-12 57.5zM691 1415l2 17q4 37 27.5 56t60.5 19h14q76 0 66 -75l-2 -17q-4 -37 -28 -57.5t-60 -20.5h-15q-37 0 -53 20.5t-12 57.5z" />
<glyph unicode="&#x152;" horiz-adv-x="2154" d="M68 567q0 268 87 469t246.5 309.5t374.5 108.5q162 0 280 -69.5t177 -200.5l35 250h856l-15 -103h-739l-76 -536h641l-14 -103h-639l-12 -84l-72 -506h739q-8 -59 -26.5 -80.5t-67.5 -21.5h-776l29 207q-92 -111 -220 -169t-288 -58q-246 0 -383 155.5t-137 431.5z M188 571q0 -231 107.5 -358t300.5 -127q178 0 308 94t198.5 271.5t68.5 420.5q0 227 -106.5 351.5t-300.5 124.5q-174 0 -304 -94.5t-201 -270.5t-71 -412z" />
<glyph unicode="&#x153;" horiz-adv-x="1976" d="M31 410q0 229 68.5 395t197.5 254t307 88q315 0 387 -252q76 121 195 186.5t270 65.5q199 0 305.5 -104.5t106.5 -301.5q0 -82 -17 -192h-845q-4 -57 -5 -90q0 -180 88.5 -280.5t245.5 -100.5q244 0 340 176q20 35 51 35q33 0 72 -33q-66 -137 -184.5 -206.5 t-286.5 -69.5q-156 0 -262.5 71.5t-151.5 204.5q-72 -135 -192.5 -205.5t-280.5 -70.5q-410 0 -409 430zM145 414q0 -172 76 -255t234 -83q174 0 284.5 115.5t145.5 330.5q4 57 12 105q2 29 2 88q0 172 -75.5 255t-231.5 83q-211 0 -329 -168t-118 -471zM1018 643h729 q8 41 8 102q0 152 -78 230t-229 78q-168 0 -280.5 -108.5t-149.5 -301.5z" />
<glyph unicode="&#x178;" horiz-adv-x="1208" d="M125 1434h129l334 -734l536 734h127l-620 -832l-84 -602h-117l84 602zM443 1640l2 17q4 37 27.5 56t60.5 19h14q76 0 66 -75l-2 -17q-4 -37 -28 -57.5t-60 -20.5h-15q-37 0 -53 20.5t-12 57.5zM828 1640l2 17q4 37 27.5 56t60.5 19h14q76 0 66 -75l-2 -17 q-4 -37 -28 -57.5t-60 -20.5h-15q-37 0 -53 20.5t-12 57.5z" />
<glyph unicode="&#x2c6;" horiz-adv-x="497" d="M20 1294l277 273h109l200 -273h-106l-154 191l-211 -191h-115z" />
<glyph unicode="&#x2dc;" horiz-adv-x="499" d="M16 1362q0 66 58.5 107.5t138.5 41.5q43 0 76 -16t69 -45q33 -25 56.5 -37t52.5 -12q49 0 75.5 27.5t39.5 89.5q63 0 63 -60q0 -59 -53 -103t-129 -44q-49 0 -82 15t-74 46q-33 25 -56.5 37t-53.5 12q-47 0 -76 -27.5t-45 -86.5q-60 0 -60 55z" />
<glyph unicode="&#x2000;" horiz-adv-x="980" />
<glyph unicode="&#x2001;" horiz-adv-x="1960" />
<glyph unicode="&#x2002;" horiz-adv-x="980" />
<glyph unicode="&#x2003;" horiz-adv-x="1960" />
<glyph unicode="&#x2004;" horiz-adv-x="653" />
<glyph unicode="&#x2005;" horiz-adv-x="490" />
<glyph unicode="&#x2006;" horiz-adv-x="326" />
<glyph unicode="&#x2007;" horiz-adv-x="326" />
<glyph unicode="&#x2008;" horiz-adv-x="245" />
<glyph unicode="&#x2009;" horiz-adv-x="392" />
<glyph unicode="&#x200a;" horiz-adv-x="108" />
<glyph unicode="&#x2010;" horiz-adv-x="983" d="M86 567l12 97h738l-13 -97h-737z" />
<glyph unicode="&#x2011;" horiz-adv-x="983" d="M86 567l12 97h738l-13 -97h-737z" />
<glyph unicode="&#x2012;" horiz-adv-x="983" d="M86 567l12 97h738l-13 -97h-737z" />
<glyph unicode="&#x2013;" horiz-adv-x="1275" d="M66 567l12 97h1071l-12 -97h-1071z" />
<glyph unicode="&#x2014;" horiz-adv-x="2252" d="M66 567l12 97h2048l-12 -97h-2048z" />
<glyph unicode="&#x2018;" horiz-adv-x="497" d="M436 1171l2 19l2 20q8 61 38 128t73 122q35 45 56.5 61.5t41.5 16.5q25 0 45 -20q-63 -62 -100 -116t-55 -122h8q33 0 49 -20.5t12 -55.5l-2 -18q-4 -35 -27.5 -55.5t-56.5 -20.5h-20q-29 0 -47.5 16.5t-18.5 44.5z" />
<glyph unicode="&#x2019;" horiz-adv-x="497" d="M186 1112q63 61 100 115.5t56 122.5h-9q-29 0 -45 15.5t-16 41.5q0 12 2 19l2 20q4 33 26.5 54.5t55.5 21.5h20q35 0 52.5 -21.5t13.5 -60.5l-4 -18q-8 -63 -38 -130t-73 -122q-35 -45 -56.5 -61.5t-39.5 -16.5q-23 0 -47 20z" />
<glyph unicode="&#x201a;" horiz-adv-x="512" d="M-4 -238q63 61 100 115.5t56 122.5h-9q-29 0 -45 15.5t-16 41.5q0 12 2 19l2 20q4 33 26.5 54.5t55.5 21.5h20q35 0 52.5 -21.5t13.5 -60.5l-4 -18q-8 -63 -38 -130t-73 -122q-35 -45 -56.5 -61.5t-39.5 -16.5q-23 0 -47 20z" />
<glyph unicode="&#x201c;" horiz-adv-x="819" d="M436 1171l2 19l2 20q8 61 38 128t73 122q35 45 56.5 61.5t41.5 16.5q25 0 45 -20q-63 -61 -100 -115.5t-55 -122.5h8q33 0 49 -20.5t12 -55.5l-2 -18q-4 -35 -27.5 -55.5t-56.5 -20.5h-20q-29 0 -47.5 16.5t-18.5 44.5zM743 1171l2 19l3 20q8 61 37.5 128t72.5 122 q35 45 56.5 61.5t41.5 16.5q25 0 45 -20q-63 -62 -100 -116t-55 -122h8q33 0 49.5 -20.5t11.5 -55.5l-2 -18q-4 -35 -27.5 -55.5t-56.5 -20.5h-20q-29 0 -47.5 16.5t-18.5 44.5z" />
<glyph unicode="&#x201d;" horiz-adv-x="819" d="M186 1112q63 61 100 115.5t56 122.5h-9q-29 0 -45 15.5t-16 41.5q0 12 2 19l2 20q4 33 26.5 54.5t55.5 21.5h20q35 0 52.5 -21.5t13.5 -60.5l-4 -18q-8 -63 -38 -130t-73 -122q-35 -45 -56.5 -61.5t-39.5 -16.5q-23 0 -47 20zM494 1112q63 61 100 115.5t56 122.5h-9 q-29 0 -45 15.5t-16 41.5q0 12 2 19l2 20q4 33 26.5 54.5t55.5 21.5h20q35 0 52.5 -21.5t13.5 -60.5l-4 -18q-8 -63 -38 -130t-73 -122q-35 -45 -56.5 -61.5t-39.5 -16.5q-23 0 -47 20z" />
<glyph unicode="&#x201e;" horiz-adv-x="819" d="M-4 -238q63 61 100 115.5t56 122.5h-9q-29 0 -45 15.5t-16 41.5q0 12 2 19l2 20q4 33 26.5 54.5t55.5 21.5h20q35 0 52.5 -21.5t13.5 -60.5l-4 -18q-8 -63 -38 -130t-73 -122q-35 -45 -56.5 -61.5t-39.5 -16.5q-23 0 -47 20zM303 -238q63 61 100 115.5t56 122.5h-9 q-29 0 -45 15.5t-16 41.5q0 12 2 19l2 20q4 33 26.5 54.5t55.5 21.5h20q35 0 52.5 -21.5t13.5 -60.5l-4 -18q-8 -63 -38 -130t-73 -122q-35 -45 -56.5 -61.5t-39.5 -16.5q-23 0 -47 20z" />
<glyph unicode="&#x2022;" d="M193 711q0 121 56 219t153.5 154.5t213.5 56.5q145 0 233.5 -86t88.5 -226q0 -119 -57.5 -217t-155.5 -153.5t-213 -55.5q-145 0 -232 85t-87 223z" />
<glyph unicode="&#x2026;" horiz-adv-x="1464" d="M125 78l2 16q12 78 88 78h14q68 0 68 -59q0 -12 -2 -19l-2 -16q-10 -78 -86 -78h-14q-78 0 -68 78zM543 78l2 16q12 78 88 78h14q68 0 68 -59q0 -12 -2 -19l-2 -16q-10 -78 -86 -78h-14q-78 0 -68 78zM959 78l2 16q12 78 88 78h14q68 0 68 -59q0 -12 -2 -19l-2 -16 q-10 -78 -86 -78h-14q-78 0 -68 78z" />
<glyph unicode="&#x202f;" horiz-adv-x="392" />
<glyph unicode="&#x2039;" horiz-adv-x="696" d="M109 590l309 336h96l-291 -336l195 -350h-96z" />
<glyph unicode="&#x203a;" horiz-adv-x="696" d="M182 240l291 335l-194 351h96l213 -351l-309 -335h-97z" />
<glyph unicode="&#x205f;" horiz-adv-x="490" />
<glyph unicode="&#x20ac;" horiz-adv-x="1118" d="M-104 477l14 105h166q2 125 26 254h-155l14 106h170q76 244 245 378t406 134q125 0 230.5 -41t169.5 -117q-14 -29 -35 -46t-39 -17q-23 0 -47 18q-123 96 -283 97q-182 0 -317 -106.5t-203 -299.5h567l-16 -106h-582q-27 -123 -28 -254h575l-14 -105h-557 q16 -188 124.5 -288.5t295.5 -100.5q215 0 352 135q23 -2 35 -15t12 -34q0 -47 -58.5 -93t-153.5 -73.5t-196 -27.5q-240 0 -379 129t-157 368h-182z" />
<glyph unicode="&#x2122;" horiz-adv-x="2048" d="M174 1350l12 84h717l-4 -33q-4 -25 -19.5 -38t-39.5 -13h-256l-109 -779h-92l109 779h-318zM877 571q59 412 161 863h99q135 -301 219 -596q70 125 145.5 239.5t188.5 276.5l55 80h100q-29 -506 -80 -863h-92q49 352 74 729q-229 -317 -379 -595h-57q-82 297 -209 591 q-84 -360 -133 -725h-92z" />
<glyph unicode="&#x25fc;" horiz-adv-x="1126" d="M0 0v1126h1126v-1126h-1126z" />
</font>
</defs>
</svg>
